<?xml version="1.0" encoding="UTF-8"?>
<svg width="512" height="168" version="1.1" viewBox="0 0 135.47 44.45" xmlns="http://www.w3.org/2000/svg">
<rect x="-4.7595e-6" y="-2.5692e-6" width="135.47" height="44.45" fill="#dd0428" stroke-width=".99999"/>
<g transform="matrix(.51773 .037687 -.037687 .51773 68.971 -102.97)" clip-path="url(#a)" fill="#b1031f" stroke-width="1.9264">
<g transform="matrix(2.1003,0,0,2.1003,-22.549,-28.627)" fill="#bf0322" stroke-width="1.1672">
<path d="m21.913 153.57 54.484-16.79-72.872-42.304 56.673 41.86-34.451 10.084z"/>
<path d="m-0.55722 97.314 25.681 31.946-18.535 37.543 12.187-3.756c4.8574-11.168 9.7147-22.335 14.572-33.503l0.63359 8.7913 15.094-3.8998z"/>
</g>
</g>
<g fill="#fff" font-family="Arial" letter-spacing="0px" stroke-width=".26457" word-spacing="0px">
<g aria-label="Download">
<path d="m54.789 15.003q0 1.1597-0.47182 2.0919-0.46613 0.93227-1.2563 1.4552-0.64236 0.4036-1.3075 0.54003-0.65941 0.13643-1.6883 0.13643h-1.9498v-8.4643h1.9271q1.1938 0 1.8702 0.18191 0.68215 0.17622 1.1597 0.48887 0.81858 0.54004 1.2677 1.4382 0.44908 0.89248 0.44908 2.1317zm-1.171-0.01705q0-0.97775-0.32402-1.6656-0.32402-0.69352-0.96069-1.0801-0.44908-0.27286-0.96069-0.39224t-1.2733-0.11938h-0.85837v6.5316h0.85837q0.75036 0 1.3131-0.11938 0.56277-0.11938 1.0289-0.4434 0.58551-0.39792 0.88111-1.0573 0.2956-0.6651 0.2956-1.6542z"/>
<path d="m61.15 16.055q0 1.603-0.7731 2.4785-0.7731 0.86974-2.0578 0.86974-1.3245 0-2.0862-0.89816-0.75605-0.90385-0.75605-2.45 0-1.5917 0.77879-2.4728 0.78447-0.88111 2.0635-0.88111 1.2847 0 2.0578 0.88111 0.7731 0.87542 0.7731 2.4728zm-1.1028 0q0-1.2336-0.44908-1.8304-0.44908-0.60256-1.279-0.60256-0.83563 0-1.2904 0.60256-0.44908 0.59688-0.44908 1.8304 0 1.1938 0.44908 1.8134 0.45476 0.61393 1.2904 0.61393 0.82426 0 1.2733-0.60256 0.45476-0.60825 0.45476-1.8247z"/>
<path d="m69.944 12.877-1.6087 6.3497h-0.98912l-1.5519-4.8944-1.5405 4.8944h-0.98343l-1.6258-6.3497h1.1142l1.1199 4.9172 1.5064-4.9172h0.88111l1.5462 4.9172 1.0573-4.9172z"/>
<path d="m75.878 19.227h-1.0687v-3.6154q0-0.43771-0.04548-0.81289-0.03979-0.38087-0.15917-0.60825-0.13074-0.23875-0.36381-0.35244-0.23307-0.11938-0.63667-0.11938-0.39792 0-0.82426 0.21601-0.42066 0.21033-0.82426 0.5514v4.7409h-1.0687v-6.3497h1.0687v0.70489q0.4775-0.42634 0.94364-0.65372 0.46614-0.22738 0.98343-0.22738 0.93795 0 1.4666 0.61962 0.52866 0.61393 0.52866 1.785z"/>
<path d="m78.47 19.227h-1.0687v-8.8452h1.0687z"/>
<path d="m85.264 16.055q0 1.603-0.7731 2.4785-0.7731 0.86974-2.0578 0.86974-1.3245 0-2.0862-0.89816-0.75605-0.90385-0.75605-2.45 0-1.5917 0.77879-2.4728 0.78447-0.88111 2.0635-0.88111 1.2847 0 2.0578 0.88111 0.7731 0.87542 0.7731 2.4728zm-1.1028 0q0-1.2336-0.44908-1.8304-0.44908-0.60256-1.279-0.60256-0.83563 0-1.2904 0.60256-0.44908 0.59688-0.44908 1.8304 0 1.1938 0.44908 1.8134 0.45477 0.61393 1.2904 0.61393 0.82426 0 1.2733-0.60256 0.45476-0.60825 0.45476-1.8247z"/>
<path d="m89.908 17.664v-1.7622q-0.38087 0.03411-0.96638 0.09664-0.57983 0.05685-0.93795 0.16485-0.42634 0.13074-0.70489 0.4036-0.27854 0.26717-0.27854 0.75036 0 0.54572 0.30697 0.82426t0.89816 0.27854q0.50593 0 0.91522-0.21601 0.40929-0.2217 0.76742-0.54003zm0 0.88679q-0.13074 0.09664-0.35244 0.27286-0.21601 0.17054-0.42066 0.27286-0.28423 0.1478-0.5514 0.22738-0.26149 0.07958-0.73899 0.07958-0.39224 0-0.74468-0.1478-0.35244-0.1478-0.61962-0.41497-0.25581-0.26149-0.40929-0.64236-0.15348-0.38655-0.15348-0.81289 0-0.65941 0.27854-1.1199 0.27854-0.46613 0.88111-0.73899 0.53435-0.24444 1.262-0.33539 0.72762-0.09664 1.5689-0.14212v-0.20464q0-0.37518-0.11369-0.60256-0.11369-0.23307-0.31834-0.35813-0.20464-0.13074-0.50024-0.17054-0.2956-0.04548-0.60825-0.04548-0.3695 0-0.86974 0.11369-0.50024 0.10801-1.0005 0.31834h-0.06253v-1.0858q0.2956-0.08527 0.847-0.18759 0.5514-0.10232 1.0914-0.10232 0.65373 0 1.1028 0.10232 0.44908 0.10232 0.80721 0.3695 0.34676 0.26149 0.5173 0.67646 0.17054 0.41497 0.17054 1.0119v4.343h-1.063z"/>
<path d="m97.36 19.227h-1.0687v-0.64804q-0.25012 0.21033-0.43203 0.34676-0.18191 0.13643-0.42634 0.25012-0.22738 0.10801-0.47182 0.16485-0.24444 0.06253-0.56846 0.06253-0.5173 0-0.96069-0.21601-0.43771-0.21601-0.74468-0.63099-0.31265-0.42066-0.48319-1.0346-0.17054-0.61962-0.17054-1.4211 0-0.83563 0.21601-1.4439 0.21601-0.61393 0.59688-1.0687 0.34676-0.41497 0.83563-0.64804 0.49456-0.23875 1.0346-0.23875 0.4775 0 0.82995 0.10801 0.35244 0.10232 0.74468 0.32402v-2.7513h1.0687zm-1.0687-1.5462v-3.6609q-0.39792-0.19328-0.71626-0.26718-0.31265-0.0739-0.68215-0.0739-0.82426 0-1.2904 0.61962-0.46614 0.61393-0.46614 1.7793 0 1.1199 0.35813 1.7167 0.35813 0.5912 1.1483 0.5912 0.42066 0 0.847-0.18759 0.42634-0.19328 0.80152-0.5173z"/>
</g>
<g aria-label="Flashpoint">
<path d="m55.532 24.208h-5.8492v3.545h5.6044v1.4855h-5.6044v6.0518h-1.6712v-12.568h7.5204z"/>
<path d="m58.519 35.291h-1.5868v-13.133h1.5868z"/>
<path d="m66.116 32.969v-2.6165q-0.56551 0.05064-1.4349 0.14349-0.86092 0.0844-1.3927 0.24477-0.63303 0.19413-1.0466 0.59927-0.41358 0.3967-0.41358 1.1141 0 0.81028 0.45578 1.2239 0.45578 0.41358 1.3336 0.41358 0.7512 0 1.3589-0.32074 0.60771-0.32918 1.1395-0.80184zm0 1.3167q-0.19413 0.14349-0.52331 0.40514-0.32074 0.25321-0.62459 0.40514-0.42202 0.21945-0.81872 0.33762-0.38826 0.11817-1.0973 0.11817-0.58239 0-1.1057-0.21945-0.52331-0.21945-0.92001-0.61615-0.37982-0.38826-0.60771-0.95377-0.22789-0.57395-0.22789-1.207 0-0.97909 0.41358-1.6628 0.41358-0.69212 1.3083-1.0973 0.7934-0.36294 1.8738-0.49798 1.0804-0.14349 2.3296-0.21101v-0.30386q0-0.55707-0.16881-0.89469-0.16881-0.34606-0.47266-0.53175-0.30386-0.19413-0.74276-0.25321-0.4389-0.06752-0.90312-0.06752-0.54863 0-1.2914 0.16881-0.74276 0.16037-1.4855 0.47266h-0.09284v-1.6121q0.4389-0.12661 1.2576-0.27853 0.81872-0.15193 1.6206-0.15193 0.97065 0 1.6374 0.15193t1.1985 0.54863q0.51487 0.38826 0.76808 1.0044t0.25321 1.5024v6.4485h-1.5784z"/>
<path d="m72.472 35.518q-0.94533 0-1.7725-0.25321-0.81872-0.25321-1.3589-0.54019v-1.7809h0.0844q0.20257 0.16037 0.47266 0.3545 0.27853 0.19413 0.73432 0.40514 0.40514 0.18569 0.88624 0.32918 0.48954 0.14349 1.0129 0.14349 0.37982 0 0.81028-0.0844 0.43046-0.09284 0.64147-0.22789 0.29542-0.19413 0.42202-0.41358 0.13505-0.21945 0.13505-0.65835 0-0.56551-0.3123-0.85248-0.30386-0.28698-1.0888-0.4811-0.30386-0.07596-0.7934-0.17725-0.48954-0.10129-0.90313-0.21945-1.0804-0.3123-1.5699-0.96221-0.48954-0.65835-0.48954-1.5868 0-1.2745 0.96221-2.0763t2.5574-0.80184q0.78496 0 1.5784 0.19413 0.7934 0.19413 1.3336 0.48954v1.6965h-0.0844q-0.60771-0.4811-1.3589-0.75964-0.74276-0.27853-1.5024-0.27853-0.78496 0-1.3251 0.32918-0.54019 0.32918-0.54019 0.99597 0 0.59083 0.32074 0.88624 0.32074 0.28698 1.0297 0.47266 0.3545 0.09285 0.78496 0.18569 0.4389 0.0844 0.92001 0.20257 1.0466 0.26165 1.5699 0.86936 0.53175 0.60771 0.53175 1.6543 0 0.60771-0.24477 1.1563-0.23633 0.54019-0.70056 0.92845-0.50643 0.42202-1.1479 0.64147-0.63303 0.21945-1.5952 0.21945z"/>
<path d="m85.048 35.291h-1.5868v-5.3681q0-0.64991-0.06752-1.207-0.05908-0.56551-0.23633-0.90313-0.19413-0.3545-0.54019-0.52331-0.34606-0.17725-0.94533-0.17725-0.59083 0-1.2239 0.32074-0.62459 0.3123-1.2239 0.81872v7.0393h-1.5868v-13.133h1.5868v4.752q0.709-0.63303 1.4011-0.97065 0.69212-0.33762 1.4602-0.33762 1.3927 0 2.1776 0.92001 0.78496 0.91157 0.78496 2.6503z"/>
<path d="m95.185 30.328q0 2.3549-1.131 3.756-1.1226 1.3927-2.8444 1.3927-0.70056 0-1.2407-0.16037-0.54019-0.16037-1.1057-0.49799v3.9501h-1.5868v-12.905h1.5868v0.98753q0.59083-0.53175 1.3083-0.88624 0.72588-0.36294 1.5784-0.36294 1.6206 0 2.5237 1.2829 0.91157 1.2829 0.91157 3.4437zm-1.6374 0.17725q0-1.6121-0.51487-2.4984-0.51487-0.89469-1.6712-0.89469-0.67524 0-1.3083 0.30386-0.62459 0.29542-1.1901 0.76808v5.3428q0.62459 0.30386 1.0635 0.41358 0.44734 0.10972 1.0213 0.10972 1.2323 0 1.916-0.90313 0.68368-0.90312 0.68368-2.6419z"/>
<path d="m104.59 30.581q0 2.3802-1.1479 3.68-1.1479 1.2914-3.0554 1.2914-1.9666 0-3.0976-1.3336-1.1226-1.342-1.1226-3.6378 0-2.3633 1.1563-3.6716 1.1648-1.3083 3.0639-1.3083 1.9075 0 3.0554 1.3083 1.1479 1.2998 1.1479 3.6716zm-1.6374 0q0-1.8316-0.6668-2.7178-0.66679-0.89469-1.8991-0.89469-1.2407 0-1.916 0.89469-0.66679 0.88624-0.66679 2.7178 0 1.7725 0.66679 2.6925 0.67523 0.91157 1.916 0.91157 1.2239 0 1.8907-0.89468 0.67524-0.90313 0.67524-2.7094z"/>
<path d="m107.84 35.291h-1.5868v-9.428h1.5868zm0.10973-11.006h-1.8062v-1.6459h1.8062z"/>
<path d="m117.58 35.291h-1.5868v-5.3681q0-0.64991-0.0675-1.207-0.0591-0.56551-0.23633-0.90313-0.19413-0.3545-0.54019-0.52331-0.34606-0.17725-0.94533-0.17725-0.59083 0-1.2239 0.32074-0.62459 0.3123-1.2239 0.81872v7.0393h-1.5868v-9.428h1.5868v1.0466q0.70899-0.63303 1.4011-0.97065 0.69211-0.33762 1.4602-0.33762 1.3927 0 2.1776 0.92001 0.78496 0.91157 0.78496 2.6503z"/>
<path d="m122.66 35.476q-1.2998 0-2.0257-0.73432-0.72588-0.74276-0.72588-2.338v-5.2246h-1.0719v-1.3167h1.0719v-2.7094h1.5868v2.7094h2.9204v1.3167h-2.9204v4.4819q0 0.71744 0.0253 1.1057t0.19413 0.72588q0.14349 0.29542 0.46422 0.44734 0.32074 0.14349 0.86937 0.14349 0.38826 0 0.7512-0.10972 0.36294-0.11817 0.5233-0.19413h0.0928v1.4264q-0.44734 0.12661-0.91157 0.19413-0.45578 0.07596-0.84404 0.07596z"/>
</g>
</g>
<g transform="matrix(.99998 0 0 .99998 -37.266 -63.676)" fill="#fff">
<path transform="scale(.26458)" d="m201.43 267.16v45.357h-21.785l44.643 44.643 44.643-44.643h-21.785v-45.357z"/>
<rect transform="scale(1,-1)" x="47.531" y="-101.11" width="23.624" height="3.9688"/>
</g>
<defs>
<clipPath id="a">
<rect transform="rotate(-4.1634)" x="-132.87" y="198.36" width="260.97" height="85.629" fill="#dd0428"/>
</clipPath>
</defs>
</svg>
