<?xml version="1.0" encoding="UTF-8" standalone="no"?>
<svg
   width="72.831436mm"
   height="89.153908mm"
   viewBox="0 0 258.06413 315.89965"
   id="svg2"
   version="1.1"
   inkscape:version="1.2.1 (9c6d41e410, 2022-07-14)"
   sodipodi:docname="linux.svg"
   inkscape:export-filename="/home/raphael/Documents/WORK/EUX/Ecogex/linux-logo/img/cool-linux-logo.png"
   inkscape:export-xdpi="348.75"
   inkscape:export-ydpi="348.75"
   xmlns:inkscape="http://www.inkscape.org/namespaces/inkscape"
   xmlns:sodipodi="http://sodipodi.sourceforge.net/DTD/sodipodi-0.dtd"
   xmlns="http://www.w3.org/2000/svg"
   xmlns:svg="http://www.w3.org/2000/svg"
   xmlns:rdf="http://www.w3.org/1999/02/22-rdf-syntax-ns#"
   xmlns:cc="http://creativecommons.org/ns#"
   xmlns:dc="http://purl.org/dc/elements/1.1/">
  <defs
     id="defs4" />
  <sodipodi:namedview
     inkscape:guide-bbox="true"
     showguides="true"
     id="base"
     pagecolor="#ffffff"
     bordercolor="#666666"
     borderopacity="1.0"
     inkscape:pageopacity="0.0"
     inkscape:pageshadow="2"
     inkscape:zoom="1.6898398"
     inkscape:cx="183.74522"
     inkscape:cy="156.8196"
     inkscape:document-units="px"
     inkscape:current-layer="svg2"
     showgrid="true"
     inkscape:snap-global="false"
     fit-margin-top="0"
     fit-margin-left="0"
     fit-margin-right="0"
     fit-margin-bottom="0"
     inkscape:window-width="1920"
     inkscape:window-height="1017"
     inkscape:window-x="-8"
     inkscape:window-y="-8"
     inkscape:window-maximized="1"
     inkscape:object-paths="true"
     inkscape:snap-intersection-paths="true"
     inkscape:object-nodes="true"
     inkscape:snap-smooth-nodes="true"
     inkscape:snap-bbox="true"
     inkscape:bbox-nodes="true"
     inkscape:snap-bbox-edge-midpoints="true"
     inkscape:snap-bbox-midpoints="true"
     inkscape:bbox-paths="true"
     inkscape:snap-page="false"
     inkscape:snap-grids="false"
     inkscape:snap-to-guides="false"
     inkscape:showpageshadow="2"
     inkscape:pagecheckerboard="0"
     inkscape:deskcolor="#d1d1d1">
    <inkscape:grid
       originy="-401.24579"
       originx="-352.27525"
       type="xygrid"
       id="grid267" />
  </sodipodi:namedview>
  <metadata
     id="metadata7">
    <rdf:rdf>
      <cc:work
         rdf:about="">
        <dc:format>image/svg+xml</dc:format>
        <dc:type
           rdf:resource="http://purl.org/dc/dcmitype/StillImage" />
      </cc:work>
    </rdf:rdf>
  </metadata>
  <path
     id="path1232"
     style="display:inline;color:#000000;clip-rule:nonzero;overflow:visible;visibility:visible;isolation:auto;mix-blend-mode:normal;color-interpolation:sRGB;color-interpolation-filters:linearRGB;solid-color:#000000;solid-opacity:1;fill:#000000;fill-opacity:1;fill-rule:nonzero;stroke:none;stroke-width:0.375;stroke-linecap:butt;stroke-linejoin:miter;stroke-miterlimit:1;stroke-dasharray:none;stroke-dashoffset:0;stroke-opacity:1;color-rendering:auto;image-rendering:auto;shape-rendering:auto;text-rendering:auto;enable-background:accumulate"
     d="M -66.536689 -214.10768 C -67.580997 -214.10776 -68.809572 -214.09899 -69.81977 -214.09669 C -93.676422 -213.36248 -117.94703 -208.06209 -134.29486 -185.42055 C -152.14509 -160.69821 -147.20362 -138.43211 -147.91791 -130.57497 C -148.63219 -122.71784 -202.02437 -31.264464 -194.91741 -18.20865 C -190.94584 -10.912666 -173.27443 -22.565403 -172.91729 -12.208285 C -172.56014 -1.851155 -190.18918 101.79134 -67.455879 101.79134 L -66.540351 101.79134 C -66.221643 101.79175 -65.91975 101.78833 -65.6175 101.79134 C 57.115794 101.79134 39.486768 -1.851155 39.843916 -12.208285 C 40.201056 -22.565403 57.872454 -10.912666 61.844036 -18.20865 C 68.950982 -31.264464 15.558807 -122.71784 14.844529 -130.57497 C 14.130241 -138.43211 19.071717 -160.69821 1.2214832 -185.42055 C -15.126814 -208.06273 -39.396306 -213.36457 -63.253608 -214.09852 C -64.494576 -214.09852 -65.425801 -214.10768 -66.536689 -214.10768 z M -106.53791 -157.66726 C -100.04856 -157.66726 -94.788029 -152.40672 -94.788029 -145.91738 C -94.788029 -139.42804 -100.04856 -134.1675 -106.53791 -134.1675 C -113.02725 -134.1675 -118.28778 -139.42804 -118.28778 -145.91738 C -118.28778 -152.40672 -113.02725 -157.66726 -106.53791 -157.66726 z M -26.537303 -157.66726 C -20.04796 -157.66726 -14.787426 -152.40672 -14.787426 -145.91738 C -14.787426 -139.42804 -20.04796 -134.1675 -26.537303 -134.1675 C -33.026647 -134.1675 -38.28718 -139.42804 -38.28718 -145.91738 C -38.28718 -152.40672 -33.026647 -157.66726 -26.537303 -157.66726 z M -114.08185 -104.31399 C -102.01214 -104.70249 -79.23202 -87.238306 -68.84748 -83.795192 C -67.738142 -83.497942 -67.336987 -83.256862 -66.536689 -83.256862 C -65.736391 -83.256862 -65.268926 -83.515712 -64.225898 -83.795192 C -53.47062 -87.360126 -29.416674 -105.97045 -17.739086 -104.20229 C -4.8308724 -102.24782 -15.531946 -82.876051 -10.032178 -68.634061 C 3.8110646 -32.786083 22.414093 22.749159 2.558153 55.075645 C -3.6148846 65.125665 -17.957992 82.373035 -63.328682 82.942463 C -64.39987 82.949463 -65.444881 82.962736 -66.536689 82.964436 C -67.629127 82.962436 -68.676511 82.949563 -69.748359 82.942463 C -115.11676 82.372345 -129.45862 65.125455 -135.63153 55.075645 C -155.48747 22.749159 -136.88445 -32.786083 -123.0412 -68.634061 C -117.54144 -82.876051 -128.24251 -102.24782 -115.33429 -104.20229 C -114.93091 -104.26339 -114.51372 -104.30006 -114.08185 -104.31399 z "
     transform="translate(195.56927,214.10768)" />
</svg>
