<?xml version="1.0" encoding="UTF-8"?>
<svg width="256" height="256" version="1.1" viewBox="0 0 67.733 67.733" xmlns="http://www.w3.org/2000/svg">
<g transform="translate(0 -229.27)">
<path d="m11.207 230.38 50.491 29.289c2.8822 1.6719 6.3639 2.7053 6.0114 6.0236v31.303h-67.709v-61.823c0-6.0236 7.2448-7.0851 11.207-4.7931z" fill="#dd0428"/>
<path transform="matrix(.26458 0 0 .26458 0 229.27)" d="m27.832 16.045 164.76 121.7-99.289 29.062c7.0778-16.273 14.155-32.546 21.232-48.818l1.8418 25.559 43.883-11.338-144.29-107.92 74.66 92.875-53.885 109.15 35.432-10.92c4.1406-9.5199 8.2813-19.039 12.422-28.559l155.1-47.795-211.86-122.99z" fill="#fff" stroke-width="3.7795"/>
</g>
</svg>
