<?xml version="1.0" encoding="UTF-8"?>
<svg width="378" height="128" version="1.1" viewBox="0 0 100.01 33.867" xmlns="http://www.w3.org/2000/svg">
<g transform="translate(0 -263.13)" font-family="Tahoma" letter-spacing="0px" stroke-width=".26458" word-spacing="0px">
<g aria-label="BlueMaxima's">
<path d="m12.489 271.83q0 0.51625-0.19534 0.91157-0.19534 0.39533-0.52555 0.65113-0.39067 0.30695-0.83716 0.43718-0.44648 0.12557-1.1534 0.12557h-1.9859v-6.9252h1.8371q0.73949 0 1.1069 0.0512 0.37207 0.0465 0.71158 0.2279 0.37207 0.19998 0.54415 0.52555 0.17208 0.32091 0.17208 0.75809 0 0.48834-0.26045 0.87436-0.2558 0.38603-0.71158 0.60462v0.0372q0.61857 0.16743 0.95808 0.61391 0.33951 0.44184 0.33951 1.1069zm-1.2836-3.1068q0-0.25114-0.08372-0.43253-0.08371-0.18603-0.26975-0.293-0.22324-0.12558-0.49764-0.15348-0.2744-0.0279-0.75809-0.0279h-0.88367v2.0278h1.0464q0.43253 0 0.63717-0.0419 0.20464-0.0465 0.42323-0.18604 0.20929-0.13487 0.29766-0.35346 0.08837-0.2186 0.08837-0.53951zm0.32556 3.144q0-0.39068-0.11162-0.64182-0.11162-0.2558-0.45114-0.43253-0.21859-0.11628-0.47904-0.14883-0.2558-0.0326-0.73019-0.0326h-1.0464v2.558h0.74879q0.60461 0 0.95343-0.0558t0.61392-0.23719q0.26045-0.18139 0.38137-0.40928 0.12092-0.23254 0.12092-0.59996z"/>
<path d="m14.285 273.96h-0.87436v-7.2368h0.87436z"/>
<path d="m19.614 273.96h-0.87437v-0.57671q-0.40463 0.35347-0.7674 0.53951-0.36277 0.18138-0.80925 0.18138-0.33952 0-0.64182-0.11162-0.29766-0.11162-0.5209-0.35347-0.22324-0.24184-0.34882-0.60926-0.12092-0.36742-0.12092-0.89297v-3.3719h0.87436v2.958q0 0.41393 0.02791 0.68833 0.03256 0.26975 0.13953 0.47439 0.10697 0.19999 0.28835 0.29301 0.18604 0.093 0.5302 0.093 0.32091 0 0.68368-0.18138 0.36277-0.18139 0.66508-0.44649v-3.8788h0.87436z"/>
<path d="m23.135 274.08q-1.2418 0-1.9301-0.69764-0.68368-0.70228-0.68368-1.9906 0-1.2697 0.66508-2.0185 0.66508-0.75345 1.7394-0.75345 0.48369 0 0.85576 0.13953 0.37207 0.13953 0.65112 0.43718 0.27905 0.29766 0.42788 0.73019 0.14883 0.42788 0.14883 1.0511v0.47439h-3.5998q0 0.90692 0.45579 1.386 0.45579 0.47904 1.2604 0.47904 0.28835 0 0.56276-0.0651 0.27905-0.0651 0.5023-0.16743 0.2372-0.10697 0.39998-0.20464 0.16278-0.10232 0.26975-0.19069h0.05116v0.95343q-0.15348 0.0605-0.38137 0.15348-0.22789 0.0884-0.40928 0.13953-0.2558 0.0698-0.46509 0.10697-0.20464 0.0372-0.5209 0.0372zm1.0232-3.2975q-0.0093-0.35346-0.08372-0.60926-0.07441-0.2558-0.21394-0.43253-0.15348-0.19534-0.39532-0.29766-0.2372-0.10232-0.59066-0.10232-0.34882 0-0.59531 0.10697-0.24185 0.10232-0.44183 0.30231-0.19534 0.20464-0.29766 0.45578-0.10232 0.2465-0.13022 0.57671z"/>
<path d="m31.897 273.96h-0.92087v-5.9671l-1.8045 4.0602h-0.55811l-1.7906-4.0602v5.9671h-0.86041v-6.9252h1.2557l1.7301 3.8556 1.6697-3.8556h1.279z"/>
<path d="m36.134 272.68v-1.4418q-0.31161 0.0279-0.79065 0.0791-0.47439 0.0465-0.7674 0.13488-0.34882 0.10697-0.57671 0.33021-0.22789 0.21859-0.22789 0.61392 0 0.44648 0.25115 0.67437 0.25115 0.2279 0.73484 0.2279 0.41393 0 0.74879-0.17674 0.33486-0.18138 0.62787-0.44183zm0 0.72554q-0.10697 0.0791-0.28835 0.22324-0.17673 0.13953-0.34416 0.22324-0.23254 0.12093-0.45114 0.18604-0.21394 0.0651-0.60462 0.0651-0.32091 0-0.60926-0.12092-0.28835-0.12093-0.50695-0.33952-0.20929-0.21394-0.33486-0.52555-0.12557-0.31626-0.12557-0.66507 0-0.5395 0.22789-0.91623 0.22789-0.38137 0.72089-0.60461 0.43718-0.19999 1.0325-0.2744 0.59531-0.0791 1.2836-0.11627v-0.16743q0-0.30696-0.09302-0.493-0.09302-0.19068-0.26045-0.293-0.16743-0.10697-0.40928-0.13953-0.24185-0.0372-0.49764-0.0372-0.30231 0-0.71158 0.093-0.40928 0.0884-0.81856 0.26045h-0.05116v-0.88832q0.24185-0.0698 0.69298-0.15348 0.45114-0.0837 0.89297-0.0837 0.53485 0 0.90227 0.0837 0.36742 0.0837 0.66042 0.30231 0.2837 0.21394 0.42323 0.55346 0.13953 0.33951 0.13953 0.82785v3.5533h-0.86971z"/>
<path d="m42.269 273.96h-1.0744l-1.2604-1.9627-1.2976 1.9627h-0.99064l1.8045-2.5766-1.7859-2.6184h1.0744l1.2511 1.9441 1.2836-1.9441h0.99529l-1.7952 2.558z"/>
<path d="m43.841 273.96h-0.87437v-5.195h0.87437zm0.06046-6.0647h-0.99529v-0.90692h0.99529z"/>
<path d="m51.022 273.96v-3.0045q0-0.35812-0.0279-0.66043-0.02791-0.30696-0.11627-0.47904-0.09302-0.18604-0.2651-0.2744-0.17208-0.0884-0.46509-0.0884-0.26975 0-0.58136 0.16743-0.30696 0.16278-0.63717 0.47439 0.0047 0.0791 0.0093 0.19069 0.0093 0.10697 0.0093 0.2558v3.4184h-0.87436v-3.0045q0-0.35812-0.02791-0.66043-0.02791-0.30696-0.11627-0.47904-0.09302-0.18604-0.2651-0.2744-0.17208-0.0884-0.46509-0.0884-0.2837 0-0.59531 0.17673-0.31161 0.17674-0.60461 0.45114v3.8788h-0.87436v-5.195h0.87436v0.57671q0.34416-0.34416 0.67903-0.5302 0.33951-0.19069 0.74414-0.19069 0.46044 0 0.8139 0.20929 0.35812 0.20929 0.54415 0.68833 0.39532-0.44183 0.77205-0.66972 0.37672-0.2279 0.81856-0.2279 0.33486 0 0.60926 0.10697 0.2744 0.10232 0.47904 0.33487 0.20929 0.23719 0.32091 0.59066 0.11627 0.35347 0.11627 0.88832v3.4184z"/>
<path d="m56.026 272.68v-1.4418q-0.31161 0.0279-0.79065 0.0791-0.47439 0.0465-0.7674 0.13488-0.34882 0.10697-0.57671 0.33021-0.22789 0.21859-0.22789 0.61392 0 0.44648 0.25115 0.67437 0.25115 0.2279 0.73484 0.2279 0.41393 0 0.74879-0.17674 0.33486-0.18138 0.62787-0.44183zm0 0.72554q-0.10697 0.0791-0.28836 0.22324-0.17673 0.13953-0.34416 0.22324-0.23254 0.12093-0.45114 0.18604-0.21394 0.0651-0.60461 0.0651-0.32091 0-0.60926-0.12092-0.28836-0.12093-0.50695-0.33952-0.20929-0.21394-0.33486-0.52555-0.12557-0.31626-0.12557-0.66507 0-0.5395 0.22789-0.91623 0.22789-0.38137 0.72089-0.60461 0.43718-0.19999 1.0325-0.2744 0.59531-0.0791 1.2836-0.11627v-0.16743q0-0.30696-0.09302-0.493-0.09302-0.19068-0.26045-0.293-0.16743-0.10697-0.40928-0.13953-0.24185-0.0372-0.49764-0.0372-0.30231 0-0.71158 0.093-0.40928 0.0884-0.81856 0.26045h-0.05116v-0.88832q0.24185-0.0698 0.69298-0.15348 0.45114-0.0837 0.89297-0.0837 0.53485 0 0.90227 0.0837t0.66042 0.30231q0.2837 0.21394 0.42323 0.55346 0.13953 0.33951 0.13953 0.82785v3.5533h-0.86971z"/>
<path d="m59.012 266.72-0.19999 2.6928h-0.63252l-0.19999-2.6928z"/>
<path d="m61.538 274.08q-0.5209 0-0.97668-0.13953-0.45114-0.13953-0.74879-0.29766v-0.98133h0.04651q0.11162 0.0884 0.26045 0.19534 0.15348 0.10697 0.40463 0.22324 0.22324 0.10232 0.48834 0.18138 0.26975 0.0791 0.55811 0.0791 0.20929 0 0.44648-0.0465 0.2372-0.0512 0.35347-0.12558 0.16278-0.10697 0.23254-0.22789 0.07441-0.12092 0.07441-0.36277 0-0.31161-0.17208-0.46974-0.16743-0.15813-0.59996-0.2651-0.16743-0.0419-0.43718-0.0977t-0.49764-0.12093q-0.59531-0.17208-0.86506-0.5302-0.26975-0.36277-0.26975-0.87436 0-0.70229 0.5302-1.1441t1.4092-0.44183q0.43253 0 0.86971 0.10697 0.43718 0.10697 0.73484 0.26975v0.93483h-0.04651q-0.33486-0.2651-0.74879-0.41858-0.40928-0.15348-0.82786-0.15348-0.43253 0-0.73019 0.18138-0.29766 0.18139-0.29766 0.54881 0 0.32556 0.17673 0.48834 0.17673 0.15813 0.56741 0.26045 0.19534 0.0512 0.43253 0.10232 0.24185 0.0465 0.50695 0.11162 0.57671 0.14417 0.86506 0.47904 0.29301 0.33486 0.29301 0.91157 0 0.33486-0.13488 0.63717-0.13022 0.29766-0.38602 0.5116-0.27905 0.23254-0.63252 0.35346-0.34882 0.12093-0.87902 0.12093z"/>
</g>
<g aria-label="Flashpoint">
<path d="m14.73 277.34h-6.458v3.9139h6.1877v1.6401h-6.1877v6.6816h-1.8451v-13.876h8.3031z"/>
<path d="m18.333 289.57h-1.7519v-14.5h1.7519z"/>
<path d="m27.024 287.01v-2.8888q-0.62436 0.0559-1.5842 0.15842-0.95052 0.0932-1.5376 0.27025-0.69891 0.21433-1.1555 0.66164-0.45662 0.43798-0.45662 1.2301 0 0.89461 0.50322 1.3512 0.50322 0.45662 1.4724 0.45662 0.82938 0 1.5003-0.35412 0.67096-0.36343 1.258-0.88529zm0 1.4537q-0.21433 0.15842-0.57777 0.44731-0.35412 0.27956-0.68959 0.4473-0.46594 0.24229-0.90393 0.37276-0.42867 0.13046-1.2115 0.13046-0.643 0-1.2208-0.24229-0.57777-0.24229-1.0158-0.68027-0.41935-0.42867-0.67096-1.053-0.25161-0.63369-0.25161-1.3326 0-1.081 0.45662-1.8358 0.45662-0.76415 1.4444-1.2114 0.87597-0.40071 2.0688-0.54981 1.1928-0.15843 2.572-0.23298v-0.33547q0-0.61505-0.18638-0.9878-0.18638-0.38207-0.52186-0.58709-0.33548-0.21433-0.82006-0.27956-0.48458-0.0746-0.99712-0.0746-0.60572 0-1.4258 0.18638-0.82006 0.17706-1.6401 0.52186h-0.10251v-1.7799q0.48458-0.13979 1.3885-0.30753 0.90393-0.16773 1.7892-0.16773 1.0717 0 1.8079 0.16773 0.73619 0.16774 1.3233 0.60573 0.56845 0.42867 0.84802 1.1089 0.27956 0.68028 0.27956 1.6588v7.1196h-1.7426z"/>
<path d="m34.346 289.83q-1.0437 0-1.957-0.27957-0.90393-0.27957-1.5003-0.59641v-1.9663h0.09319q0.22365 0.17706 0.52186 0.39139 0.30752 0.21433 0.81074 0.4473 0.4473 0.20502 0.97848 0.36344 0.54049 0.15842 1.1183 0.15842 0.41935 0 0.89461-0.0932 0.47526-0.10251 0.70823-0.25161 0.32616-0.21433 0.46594-0.45662 0.1491-0.24229 0.1491-0.72687 0-0.62436-0.3448-0.94121-0.33548-0.31684-1.2021-0.53117-0.33548-0.0839-0.87597-0.1957-0.54049-0.11182-0.99712-0.24229-1.1928-0.34479-1.7333-1.0623-0.54049-0.72687-0.54049-1.752 0-1.4071 1.0623-2.2924 1.0623-0.88529 2.8236-0.88529 0.86665 0 1.7426 0.21433t1.4724 0.54049v1.8731h-0.09319q-0.67096-0.53117-1.5003-0.8387-0.82006-0.30752-1.6588-0.30752-0.86665 0-1.4631 0.36344-0.59641 0.36343-0.59641 1.0996 0 0.65232 0.35412 0.97848 0.35412 0.31684 1.1369 0.52186 0.39139 0.1025 0.86665 0.20501 0.48458 0.0932 1.0158 0.22365 1.1555 0.28889 1.7333 0.95984 0.58709 0.67096 0.58709 1.8265 0 0.67096-0.27025 1.2767-0.26093 0.59641-0.77346 1.0251-0.55913 0.46595-1.2674 0.70824-0.69891 0.24229-1.7613 0.24229z"/>
<path d="m48.535 289.57h-1.7519v-5.9268q0-0.71755-0.07455-1.3326-0.06523-0.62436-0.26093-0.99711-0.21433-0.39139-0.59641-0.57777-0.38207-0.1957-1.0437-0.1957-0.65232 0-1.3512 0.35412-0.6896 0.3448-1.3512 0.90393v7.7719h-1.7519v-14.5h1.7519v5.2465q0.78278-0.69891 1.5469-1.0717 0.76414-0.37275 1.6122-0.37275 1.5376 0 2.4043 1.0158 0.86665 1.0064 0.86665 2.9261z"/>
<path d="m60.031 284.09q0 2.6-1.2487 4.1469-1.2394 1.5376-3.1405 1.5376-0.77346 0-1.3699-0.17706-0.59641-0.17705-1.2208-0.54981v4.3612h-1.7519v-14.249h1.7519v1.0903q0.65232-0.58709 1.4444-0.97848 0.80142-0.40071 1.7426-0.40071 1.7892 0 2.7863 1.4165 1.0064 1.4165 1.0064 3.8021zm-1.8079 0.1957q0-1.7799-0.56845-2.7584-0.56845-0.9878-1.8451-0.9878-0.74551 0-1.4444 0.33548-0.68959 0.32616-1.314 0.84802v5.8988q0.6896 0.33548 1.1742 0.45662 0.4939 0.12115 1.1276 0.12115 1.3606 0 2.1154-0.99712 0.75483-0.99712 0.75483-2.9168z"/>
<path d="m70.717 284.37q0 2.6279-1.2674 4.063-1.2674 1.4258-3.3734 1.4258-2.1713 0-3.42-1.4724-1.2394-1.4817-1.2394-4.0164 0-2.6093 1.2767-4.0537 1.286-1.4444 3.3827-1.4444 2.1061 0 3.3734 1.4444 1.2674 1.4351 1.2674 4.0537zm-1.8079 0q0-2.0222-0.73619-3.0007-0.73619-0.9878-2.0967-0.9878-1.3699 0-2.1154 0.9878-0.73619 0.97848-0.73619 3.0007 0 1.957 0.73619 2.9727 0.74551 1.0064 2.1154 1.0064 1.3512 0 2.0874-0.9878 0.74551-0.99712 0.74551-2.9914z"/>
<path d="m74.609 289.57h-1.7519v-10.409h1.7519zm0.12114-12.152h-1.9942v-1.8172h1.9942z"/>
<path d="m85.667 289.57h-1.7519v-5.9268q0-0.71755-0.07455-1.3326-0.06523-0.62436-0.26093-0.99711-0.21433-0.39139-0.59641-0.57777-0.38207-0.1957-1.0437-0.1957-0.65232 0-1.3512 0.35412-0.6896 0.3448-1.3512 0.90393v7.7719h-1.7519v-10.409h1.7519v1.1555q0.78278-0.69891 1.5469-1.0717 0.76414-0.37275 1.6122-0.37275 1.5376 0 2.4043 1.0158 0.86665 1.0064 0.86665 2.9261z"/>
<path d="m91.581 289.78q-1.4351 0-2.2365-0.81074-0.80142-0.82006-0.80142-2.5813v-5.7684h-1.1835v-1.4537h1.1835v-2.9914h1.7519v2.9914h3.2243v1.4537h-3.2243v4.9483q0 0.7921 0.02796 1.2208t0.21433 0.80142q0.15842 0.32616 0.51254 0.4939 0.35412 0.15842 0.95984 0.15842 0.42867 0 0.82938-0.12114 0.40071-0.13047 0.57777-0.21434h0.10251v1.5749q-0.4939 0.13978-1.0064 0.21433-0.50322 0.0839-0.93188 0.0839z"/>
</g>
</g>
</svg>
