<?xml version="1.0" encoding="UTF-8"?>
<svg width="378" height="128" version="1.1" viewBox="0 0 100.01 33.867" xmlns="http://www.w3.org/2000/svg">
 <g stroke-width=".26458" aria-label="Archive">
  <path d="m59.841 28.213 2.3347-6.9252h1.1348l2.3347 6.9252h-0.97203l-0.62787-1.9348h-2.6464l-0.62787 1.9348zm3.9486-2.7208-1.0697-3.2649-1.0651 3.2649z"/>
  <path d="m68.985 23.957h-0.04651q-0.09767-0.02791-0.20929-0.03256-0.10697-0.0093-0.26045-0.0093-0.35347 0-0.70228 0.15348t-0.66042 0.45579v3.6881h-0.87436v-5.195h0.87436v0.77205q0.47904-0.42323 0.83251-0.59531 0.35812-0.17673 0.69298-0.17673 0.13488 0 0.19999 0.0093 0.06976 0.0047 0.15348 0.0186z"/>
  <path d="m71.738 28.329q-0.53485 0-0.98134-0.16278-0.44648-0.16743-0.7674-0.50229-0.32091-0.33486-0.49764-0.84181-0.17673-0.5116-0.17673-1.1999 0-0.68368 0.18138-1.1813 0.18604-0.49764 0.49299-0.83716 0.30696-0.33951 0.76274-0.5209 0.46044-0.18604 0.98599-0.18604 0.42788 0 0.82321 0.12092 0.39998 0.12092 0.71158 0.27905v0.98134h-0.05116q-0.09302-0.07907-0.24185-0.18138-0.14418-0.10232-0.35347-0.20929-0.18138-0.09302-0.42788-0.16278-0.2465-0.06976-0.47439-0.06976-0.67903 0-1.093 0.51625-0.40928 0.5116-0.40928 1.4511 0 0.92087 0.39532 1.4371 0.39998 0.5116 1.1069 0.5116 0.42788 0 0.8139-0.17673 0.38602-0.17673 0.68368-0.45579h0.05116v0.98134q-0.13022 0.06046-0.32556 0.14883-0.19534 0.08372-0.35347 0.12557-0.22324 0.06511-0.39998 0.09767-0.17673 0.03721-0.45579 0.03721z"/>
  <path d="m78.147 28.213h-0.87436v-2.958q0-0.35812-0.03721-0.66508-0.03256-0.31161-0.13022-0.49764-0.10697-0.19534-0.29766-0.28836-0.19069-0.09767-0.5209-0.09767-0.32556 0-0.67438 0.17673-0.34416 0.17208-0.67438 0.45114v3.8788h-0.87436v-7.2368h0.87436v2.6184q0.39067-0.34882 0.77205-0.53485 0.38137-0.18604 0.8046-0.18604 0.7674 0 1.1999 0.50695 0.43253 0.5023 0.43253 1.4604z"/>
  <path d="m80.277 28.213h-0.87437v-5.195h0.87437zm0.06046-6.0647h-0.99529v-0.90692h0.99529z"/>
  <path d="m85.644 23.018-1.958 5.195h-0.786l-1.9441-5.195h0.94413l1.4232 4.0091 1.4092-4.0091z"/>
  <path d="m88.56 28.334q-1.2418 0-1.9301-0.69763-0.68368-0.70228-0.68368-1.9906 0-1.2697 0.66508-2.0185 0.66508-0.75344 1.7394-0.75344 0.48369 0 0.85576 0.13953 0.37207 0.13953 0.65112 0.43718 0.27905 0.29766 0.42788 0.73019 0.14883 0.42788 0.14883 1.0511v0.47439h-3.5998q0 0.90692 0.45579 1.386 0.45579 0.47904 1.2604 0.47904 0.28835 0 0.56276-0.06511 0.27905-0.06511 0.5023-0.16743 0.2372-0.10697 0.39998-0.20464 0.16278-0.10232 0.26975-0.19069h0.05116v0.95343q-0.15348 0.06046-0.38137 0.15348-0.22789 0.08837-0.40928 0.13953-0.2558 0.06976-0.46509 0.10697-0.20464 0.03721-0.5209 0.03721zm1.0232-3.2975q-0.0093-0.35347-0.08372-0.60926-0.07441-0.2558-0.21394-0.43253-0.15348-0.19534-0.39532-0.29766-0.2372-0.10232-0.59066-0.10232-0.34882 0-0.59531 0.10697-0.24185 0.10232-0.44183 0.30231-0.19534 0.20464-0.29766 0.45579-0.10232 0.2465-0.13022 0.57671z"/>
 </g>
 <g stroke-width=".26458" aria-label="Flashpoint">
  <path d="m14.672 7.7935h-6.4461v3.9067h6.1764v1.6371h-6.1764v6.6694h-1.8417v-13.85h8.2879z"/>
  <path d="m18.296 20.007h-1.7487v-14.474h1.7487z"/>
  <path d="m26.998 17.449v-2.8835q-0.62322 0.05581-1.5813 0.15813-0.94878 0.09302-1.5348 0.26975-0.69763 0.21394-1.1534 0.66042-0.45579 0.43718-0.45579 1.2278 0 0.89297 0.5023 1.3488t1.4697 0.45579q0.82786 0 1.4976-0.35347 0.66973-0.36277 1.2557-0.88367zm0 1.4511q-0.21394 0.15813-0.57671 0.44648-0.35347 0.27905-0.68833 0.44648-0.46509 0.24184-0.90227 0.37207-0.42788 0.13022-1.2092 0.13022-0.64182 0-1.2185-0.24184-0.57671-0.24185-1.0139-0.67903-0.41858-0.42788-0.66973-1.0511-0.25115-0.63252-0.25115-1.3302 0-1.079 0.45579-1.8324 0.45579-0.76274 1.4418-1.2092 0.87436-0.39998 2.065-0.5488 1.1906-0.15813 2.5673-0.23254v-0.33486q0-0.61392-0.18604-0.98599-0.18604-0.38137-0.5209-0.58601-0.33486-0.21394-0.81855-0.27905-0.48369-0.07441-0.99529-0.07441-0.60462 0-1.4232 0.18604-0.81856 0.17673-1.6371 0.5209h-0.10232v-1.7766q0.48369-0.13953 1.386-0.30696 0.90227-0.16743 1.7859-0.16743 1.0697 0 1.8045 0.16743t1.3208 0.60461q0.56741 0.42788 0.84646 1.1069 0.27905 0.67903 0.27905 1.6557v7.1065h-1.7394z"/>
  <path d="m34.342 20.258q-1.0418 0-1.9534-0.27905-0.90227-0.27905-1.4976-0.59531v-1.9627h0.09302q0.22324 0.17673 0.5209 0.39067 0.30696 0.21394 0.80925 0.44648 0.44648 0.20464 0.97668 0.36277 0.5395 0.15813 1.1162 0.15813 0.41858 0 0.89297-0.09302 0.47439-0.10232 0.70693-0.25115 0.32556-0.21394 0.46509-0.45579 0.14883-0.24185 0.14883-0.72554 0-0.62322-0.34416-0.93948-0.33486-0.31626-1.1999-0.5302-0.33486-0.08372-0.87436-0.19534-0.5395-0.11162-0.99529-0.24184-1.1906-0.34417-1.7301-1.0604-0.5395-0.72554-0.5395-1.7487 0-1.4046 1.0604-2.2882 1.0604-0.88367 2.8184-0.88367 0.86506 0 1.7394 0.21394 0.87436 0.21394 1.4697 0.5395v1.8697h-0.09302q-0.66973-0.5302-1.4976-0.83716-0.81856-0.30696-1.6557-0.30696-0.86506 0-1.4604 0.36277-0.59531 0.36277-0.59531 1.0976 0 0.65112 0.35347 0.97668 0.35347 0.31626 1.1348 0.5209 0.39067 0.10232 0.86506 0.20464 0.48369 0.09302 1.0139 0.22324 1.1534 0.28835 1.7301 0.95808 0.58601 0.66973 0.58601 1.8231 0 0.66973-0.26975 1.2743-0.26045 0.59531-0.77205 1.0232-0.5581 0.46509-1.265 0.70693-0.69763 0.24184-1.758 0.24184z"/>
  <path d="m48.551 20.007h-1.7487v-5.9159q0-0.71624-0.07441-1.3302-0.06511-0.62322-0.26045-0.99529-0.21394-0.39067-0.59531-0.57671-0.38137-0.19534-1.0418-0.19534-0.65112 0-1.3488 0.35347-0.68833 0.34416-1.3488 0.90227v7.7577h-1.7487v-14.474h1.7487v5.2369q0.78135-0.69763 1.5441-1.0697t1.6092-0.37207q1.5348 0 2.3999 1.0139 0.86506 1.0046 0.86506 2.9208z"/>
  <path d="m60.072 14.537q0 2.5952-1.2464 4.1393-1.2371 1.5348-3.1347 1.5348-0.77204 0-1.3674-0.17673-0.59531-0.17673-1.2185-0.5488v4.3532h-1.7487v-14.222h1.7487v1.0883q0.65112-0.58601 1.4418-0.97668 0.79995-0.39998 1.7394-0.39998 1.7859 0 2.7812 1.4139 1.0046 1.4139 1.0046 3.7951zm-1.8045 0.19534q0-1.7766-0.56741-2.7533-0.56741-0.98599-1.8417-0.98599-0.74414 0-1.4418 0.33486-0.68833 0.32556-1.3115 0.84646v5.888q0.68833 0.33486 1.172 0.45579 0.49299 0.12092 1.1255 0.12092 1.3581 0 2.1115-0.99529t0.75344-2.9114z"/>
  <path d="m70.765 14.816q0 2.6231-1.265 4.0556-1.265 1.4232-3.3672 1.4232-2.1673 0-3.4137-1.4697-1.2371-1.479-1.2371-4.0091 0-2.6045 1.2743-4.0463 1.2836-1.4418 3.3765-1.4418 2.1022 0 3.3672 1.4418 1.265 1.4325 1.265 4.0463zm-1.8045 0q0-2.0185-0.73484-2.9952-0.73484-0.98599-2.0929-0.98599-1.3674 0-2.1115 0.98599-0.73484 0.97668-0.73484 2.9952 0 1.9534 0.73484 2.9673 0.74414 1.0046 2.1115 1.0046 1.3488 0 2.0836-0.98599 0.74414-0.99529 0.74414-2.9859z"/>
  <path d="m74.677 20.007h-1.7487v-10.39h1.7487zm0.12092-12.129h-1.9906v-1.8138h1.9906z"/>
  <path d="m85.742 20.007h-1.7487v-5.9159q0-0.71624-0.07442-1.3302-0.06511-0.62322-0.26045-0.99529-0.21394-0.39067-0.59531-0.57671-0.38137-0.19534-1.0418-0.19534-0.65112 0-1.3488 0.35347-0.68833 0.34416-1.3488 0.90227v7.7577h-1.7487v-10.39h1.7487v1.1534q0.78135-0.69763 1.5441-1.0697t1.6092-0.37207q1.5348 0 2.3999 1.0139 0.86506 1.0046 0.86506 2.9208z"/>
  <path d="m91.691 20.211q-1.4325 0-2.2324-0.80925-0.79995-0.81856-0.79995-2.5766v-5.7578h-1.1813v-1.4511h1.1813v-2.9859h1.7487v2.9859h3.2184v1.4511h-3.2184v4.9392q0 0.79065 0.02791 1.2185 0.02791 0.42788 0.21394 0.79995 0.15813 0.32556 0.5116 0.49299 0.35347 0.15813 0.95808 0.15813 0.42788 0 0.82786-0.12092 0.39998-0.13022 0.57671-0.21394h0.10232v1.572q-0.49299 0.13953-1.0046 0.21394-0.5023 0.08372-0.93018 0.08372z"/>
 </g>
</svg>
