<?xml version="1.0" encoding="UTF-8" standalone="no"?>
<!-- Created with Inkscape (http://www.inkscape.org/) -->

<svg
   version="1.1"
   id="svg2"
   xml:space="preserve"
   width="218.81332"
   height="192.85333"
   viewBox="0 0 218.81332 192.85333"
   sodipodi:docname="windows.eps"
   xmlns:inkscape="http://www.inkscape.org/namespaces/inkscape"
   xmlns:sodipodi="http://sodipodi.sourceforge.net/DTD/sodipodi-0.dtd"
   xmlns="http://www.w3.org/2000/svg"
   xmlns:svg="http://www.w3.org/2000/svg"><defs
     id="defs6" /><sodipodi:namedview
     id="namedview4"
     pagecolor="#ffffff"
     bordercolor="#666666"
     borderopacity="1.0"
     inkscape:pageshadow="2"
     inkscape:pageopacity="0.0"
     inkscape:pagecheckerboard="0" /><g
     id="g8"
     inkscape:groupmode="layer"
     inkscape:label="ink_ext_XXXXXX"
     transform="matrix(1.3333333,0,0,-1.3333333,0,192.85333)"><g
       id="g10"
       transform="scale(0.1)"><path
         d="m 340.895,1376.89 c 0,0 327.988,178.43 608.585,-36.53 L 792.461,800.773 c 0,0 -175.738,121.043 -306.231,107.997 C 355.738,895.723 183.879,833.234 183.879,833.234 l 157.016,543.656"
         style="fill:#000000;fill-opacity:1;fill-rule:nonzero;stroke:none"
         id="path12" /><path
         d="m 156.207,738.152 c 0,0 176.043,81.887 322.195,71.45 C 624.555,799.16 741.266,720.5 766.426,702.434 L 607.773,157.219 c 0,0 -176.347,114.746 -301.621,104.304 C 180.879,251.086 72.2852,232.004 0,194.57 l 156.207,543.582"
         style="fill:#000000;fill-opacity:1;fill-rule:nonzero;stroke:none"
         id="path14" /><path
         d="m 848.594,649.66 c 0,0 167.446,-108.879 277.046,-106.269 107.99,2.566 182.7,11.093 329.21,68.511 1.15,0.442 4.12,2.571 3.15,1.957 -3.15,-1.957 -157,-540.3238 -157,-540.3238 0,0 -172.74,-80.82036 -329.34,-72.996137 C 815.078,8.37109 721.035,97.9219 692.367,109.258 L 848.594,649.66"
         style="fill:#000000;fill-opacity:1;fill-rule:nonzero;stroke:none"
         id="path16" /><path
         d="M 1032.51,1283.43 875.098,746.965 c 0,0 127.892,-125.274 307.972,-114.836 180.07,10.441 277.95,67.199 301.75,75.195 l 156.27,541.206 c 0,0 -207.48,-86.6 -343.2,-70.94 -135.7,15.65 -220.23,73.36 -265.38,105.84"
         style="fill:#000000;fill-opacity:1;fill-rule:nonzero;stroke:none"
         id="path18" /></g></g></svg>
