<?xml version="1.0" encoding="UTF-8"?>
<svg fill="none" viewBox="0 0 36 36" xmlns="http://www.w3.org/2000/svg">
<rect class="" width="100%" height="100%" fill="none" style=""/>
<g class="currentLayer" style="">
<title>Layer 1</title>
<path class="selected" d="m15.442 4.4865a4.543 4.543 0 0 1 6.675 1.806l10.503 22.207a17.906 17.906 0 0 0 3.381-10.37c0.07-9.944-7.933-18.059-17.875-18.129-9.942-0.07-18.055 7.933-18.125 17.875a17.904 17.904 0 0 0 3.332 10.552l0.422-0.092 6.854-1.512c0.193-0.043 0.295 0.218 0.126 0.319l-5.674 3.364a17.935 17.935 0 0 0 12.815 5.494c5.64 0.04 10.689-2.52 14.017-6.556l-17.178-18.084a4.541 4.541 0 0 1 0.727-6.874zm3.224 20.414-11.06 0.96a1.953 1.953 0 1 1 0.28-3.85l10.805 2.546c0.193 0.047 0.171 0.326-0.025 0.344zm-5.12-9.726 13.411 10.849c0.153 0.124 0.015 0.367-0.17 0.297l-16.131-6.113a2.939 2.939 0 1 1 2.89-5.033z" fill="#000"/>
</g>
</svg>
