<?xml version="1.0" encoding="UTF-8" standalone="no"?>
<svg
   xmlns:dc="http://purl.org/dc/elements/1.1/"
   xmlns:cc="http://creativecommons.org/ns#"
   xmlns:rdf="http://www.w3.org/1999/02/22-rdf-syntax-ns#"
   xmlns:svg="http://www.w3.org/2000/svg"
   xmlns="http://www.w3.org/2000/svg"
   xmlns:sodipodi="http://sodipodi.sourceforge.net/DTD/sodipodi-0.dtd"
   xmlns:inkscape="http://www.inkscape.org/namespaces/inkscape"
   version="1.1"
   id="svg833"
   xml:space="preserve"
   width="200.0314"
   height="200.31367"
   viewBox="0 0 200.0314 200.31367"
   sodipodi:docname="avast.svg"
   inkscape:version="1.0.1 (3bc2e813f5, 2020-09-07)"><metadata
     id="metadata839"><rdf:RDF><cc:Work
         rdf:about=""><dc:format>image/svg+xml</dc:format><dc:type
           rdf:resource="http://purl.org/dc/dcmitype/StillImage" /><dc:title /></cc:Work></rdf:RDF></metadata><defs
     id="defs837"><clipPath
       clipPathUnits="userSpaceOnUse"
       id="clipPath849"><path
         d="M 0,249.135 H 572.539 V 0 H 0 Z"
         id="path847" /></clipPath></defs><sodipodi:namedview
     pagecolor="#ffffff"
     bordercolor="#666666"
     borderopacity="1"
     objecttolerance="10"
     gridtolerance="10"
     guidetolerance="10"
     inkscape:pageopacity="0"
     inkscape:pageshadow="2"
     inkscape:window-width="1920"
     inkscape:window-height="1017"
     id="namedview835"
     showgrid="false"
     fit-margin-top="0"
     fit-margin-left="0"
     fit-margin-right="0"
     fit-margin-bottom="0"
     inkscape:zoom="1.9963706"
     inkscape:cx="167.36628"
     inkscape:cy="42.627951"
     inkscape:window-x="-8"
     inkscape:window-y="-8"
     inkscape:window-maximized="1"
     inkscape:current-layer="g841"
     inkscape:document-rotation="0" /><g
     id="g841"
     inkscape:groupmode="layer"
     inkscape:label="avast-logo-2016-cmyk black, white"
     transform="matrix(1.3333333,0,0,-1.3333333,-63.947998,266.24687)"><g
       id="g843"><g
         id="g845"
         clip-path="url(#clipPath849)"><g
           id="g851"
           transform="translate(189.165,98.7295)"><path
             id="path853"
             style="fill:#100f0d;fill-opacity:1;fill-rule:evenodd;stroke:none;stroke-width:1.33333;opacity:1;"
             d="M 161.62305 0.009765625 C 159.38155 -0.046476561 157.08209 0.13225001 154.74609 0.5625 C 148.87009 1.6438333 143.92612 4.0733907 138.93945 8.5253906 C 133.81679 13.098724 132.5111 17.795682 126.64844 23.541016 C 117.40177 32.603682 106.31693 37.04701 93.183594 36.152344 C 86.747594 35.713677 81.316896 34.185823 74.851562 30.535156 C 67.896896 26.609823 65.178979 21.908214 59.820312 20.685547 C 54.250979 19.41488 48.063562 20.967089 44.351562 25.232422 C 39.290229 31.047088 39.95563 36.462063 42.154297 43.414062 C 44.23563 49.987396 46.018042 56.362021 46.359375 63.304688 C 46.695375 70.131354 45.908844 77.016266 43.964844 83.572266 C 40.411511 95.554932 31.672781 106.80418 23.300781 114.21484 C 16.400781 120.32418 11.523609 121.29903 7.0996094 125.56836 C 2.7982761 129.71903 0 135.42176 0 141.87109 C 0 153.03376 8.0012242 162.34583 18.587891 164.3125 C 26.86389 165.84983 34.759896 162.07749 37.226562 161.29883 C 54.413229 155.87883 75.996417 156.54575 91.59375 161.09375 C 104.49242 164.85642 115.64926 171.51979 126.05859 179.95312 C 131.06526 184.01046 134.86224 189.46408 140.12891 193.21875 C 153.66357 202.88008 177.03895 204.75433 191.98828 185.48633 C 202.10961 172.441 204.53815 149.92075 188.27148 134.60742 C 181.73948 128.45676 177.40671 127.59875 172.10938 123.71875 C 155.89471 111.84542 151.98169 86.962901 164.42969 70.740234 C 167.98702 66.101568 172.41382 62.830198 177.39648 59.519531 C 182.57248 56.079531 187.29295 51.08963 189.73828 45.904297 C 194.64895 35.490964 193.48266 22.324094 185.86133 12.496094 C 179.97016 4.8986773 171.33619 0.25348176 161.62305 0.009765625 z M 123.98633 64.232422 C 126.95833 64.232422 130.74805 66.680136 130.74805 71.105469 L 130.74805 123.29492 C 130.74805 125.98959 128.7264 130.16602 123.92773 130.16602 C 119.07307 130.16602 117.00195 126.07076 117.00195 123.49609 L 117.00195 117.74414 C 112.58062 123.84681 105.45544 129.45312 95.162109 129.45312 C 87.320776 129.45313 80.632943 126.28026 75.099609 119.93359 C 69.568943 113.61893 66.802734 106.01505 66.802734 97.123047 C 66.802734 88.19638 69.568943 80.577005 75.099609 74.263672 C 80.632943 67.950339 87.320776 64.792969 95.162109 64.792969 C 104.76611 64.792969 111.79529 69.451792 117.00195 76.453125 L 117.00195 71.105469 C 117.00195 68.213469 118.94366 64.232422 123.98633 64.232422 z M 98.933594 77.060547 C 88.649594 77.060547 80.859375 86.014683 80.859375 96.916016 C 80.859375 107.24002 88.425594 116.82227 98.933594 116.82227 C 109.56693 116.82227 117.00977 107.39868 117.00977 96.916016 C 117.00977 87.000016 110.03226 77.060547 98.933594 77.060547 z "
             transform="matrix(0.75000002,0,0,-0.75000002,-141.204,100.95566)" /></g><g
           id="g855"
           transform="translate(122.1611,112.0684)" /><g
           id="g859"
           transform="translate(342.2959,160.627)" /><g
           id="g863"
           transform="translate(242.3564,106.2939)" /><g
           id="g867"
           transform="translate(382.8262,106.2939)" /><g
           id="g871"
           transform="translate(428.1396,100.5352)" /><g
           id="g875"
           transform="translate(491.5928,111.917)" /></g></g></g></svg>
