<svg xmlns="http://www.w3.org/2000/svg" width="36" height="36" fill="none"><rect id="backgroundrect" width="100%" height="100%" x="0" y="0" fill="none" stroke="none" class="" style=""/><g class="currentLayer" style=""><title>Layer 1</title><path d="M15.44161778310579,4.486455722300103 a4.543,4.543 0 0 1 6.675,1.806 l10.503,22.207 A17.906,17.906 0 0 0 36.00061778310579,18.129455722300104 C36.07061778310579,8.185455722300103 28.06761778310579,0.07045572230010295 18.12561778310579,0.00045572230010293446 C8.18361778310579,-0.06954427769989709 0.07061778310578944,7.933455722300103 0.0006177831057894158,17.875455722300103 a17.904,17.904 0 0 0 3.332,10.552 l0.42200000000000015,-0.09200000000000008 l6.854,-1.512 c0.1930000000000001,-0.04300000000000003 0.29500000000000015,0.21800000000000008 0.126,0.3190000000000002 L5.060617783105789,30.506455722300103 A17.935,17.935 0 0 0 17.87561778310579,36.0004557223001 c5.6400000000000015,0.04000000000000002 10.689,-2.52 14.017,-6.556 L14.71461778310579,11.360455722300102 a4.541,4.541 0 0 1 0.7270000000000003,-6.8740000000000006 zM18.665617783105787,24.9004557223001 l-11.06,0.9600000000000003 a1.953,1.953 0 1 1 0.28,-3.85 l10.805,2.5460000000000003 c0.1930000000000001,0.04700000000000002 0.171,0.3260000000000002 -0.025000000000000015,0.3440000000000003 zm-5.12,-9.726 l13.411,10.849 c0.15300000000000008,0.12400000000000004 0.015000000000000008,0.36700000000000016 -0.17,0.29700000000000015 l-16.131,-6.113 a2.939,2.939 0 1 1 2.89,-5.033 z" fill="#000000" id="svg_3" class="selected" fill-opacity="1"/></g></svg>
