<?xml version="1.0" encoding="UTF-8" standalone="no"?>
<svg
   width="512"
   height="168"
   version="1.1"
   viewBox="0 0 135.47 44.45"
   id="svg33"
   xmlns="http://www.w3.org/2000/svg"
   xmlns:svg="http://www.w3.org/2000/svg">
  <rect
     x="-4.7595e-6"
     y="-2.5692e-6"
     width="135.47"
     height="44.45"
     fill="#dd0428"
     stroke-width=".99999"
     id="rect2" />
  <g
     transform="matrix(.51773 .037687 -.037687 .51773 68.971 -102.97)"
     clip-path="url(#clipPath929)"
     fill="#b1031f"
     stroke-width="1.9264"
     id="g10">
    <g
       transform="matrix(2.1003,0,0,2.1003,-22.549,-28.627)"
       fill="#bf0322"
       stroke-width="1.1672"
       id="g8">
      <path
         d="m21.913 153.57 54.484-16.79-72.872-42.304 56.673 41.86-34.451 10.084z"
         id="path4" />
      <path
         d="m-0.55722 97.314 25.681 31.946-18.535 37.543 12.187-3.756c4.8574-11.168 9.7147-22.335 14.572-33.503l0.63359 8.7913 15.094-3.8998z"
         id="path6" />
    </g>
  </g>
  <g
     fill="#ffffff"
     font-family="Arial"
     letter-spacing="0px"
     stroke-width=".26457"
     word-spacing="0px"
     id="g20">
    <g
       aria-label="Download"
       id="text14"
       style="font-size:11.642px;line-height:1.25">
      <path
         d="m 54.788541,15.003297 q 0,1.159652 -0.47182,2.091922 -0.466134,0.932269 -1.25629,1.45525 -0.642356,0.403604 -1.307451,0.540034 -0.65941,0.13643 -1.688317,0.13643 h -1.949808 v -8.464326 h 1.927069 q 1.19376,0 1.870224,0.181906 0.682149,0.176222 1.159653,0.488873 0.818578,0.540035 1.267659,1.438197 0.449081,0.892477 0.449081,2.131714 z m -1.171022,-0.01705 q 0,-0.977746 -0.32402,-1.665579 Q 52.969478,12.627146 52.332806,12.240595 51.883725,11.967736 51.372114,11.84836 50.860503,11.728984 50.09877,11.728984 H 49.2404 v 6.531572 h 0.85837 q 0.750363,0 1.313136,-0.119376 0.562772,-0.119376 1.028907,-0.443397 0.585511,-0.39792 0.881109,-1.05733 0.295597,-0.665095 0.295597,-1.65421 z"
         style="font-family:Tahoma"
         id="path37" />
      <path
         d="m 61.149575,16.054942 q 0,1.603049 -0.773102,2.478473 -0.773101,0.869739 -2.057814,0.869739 -1.324505,0 -2.086237,-0.898162 -0.756048,-0.903847 -0.756048,-2.45005 0,-1.591679 0.778786,-2.472788 0.784471,-0.881108 2.063499,-0.881108 1.284713,0 2.057814,0.881108 0.773102,0.875424 0.773102,2.472788 z m -1.102807,0 q 0,-1.233552 -0.449081,-1.830431 -0.449081,-0.602565 -1.279028,-0.602565 -0.835632,0 -1.290397,0.602565 -0.449082,0.596879 -0.449082,1.830431 0,1.19376 0.449082,1.813378 0.454765,0.613934 1.290397,0.613934 0.824263,0 1.273344,-0.602565 0.454765,-0.608249 0.454765,-1.824747 z"
         style="font-family:Tahoma"
         id="path39" />
      <path
         d="m 69.943606,12.877267 -1.608734,6.349666 h -0.989115 l -1.551888,-4.894416 -1.540518,4.894416 H 63.26992 l -1.625787,-6.349666 h 1.114176 l 1.11986,4.917154 1.506411,-4.917154 h 0.881108 l 1.546204,4.917154 1.05733,-4.917154 z"
         style="font-family:Tahoma"
         id="path41" />
      <path
         d="m 75.878298,19.226933 h -1.068699 v -3.615387 q 0,-0.437712 -0.04548,-0.812894 -0.03979,-0.380866 -0.159168,-0.608249 -0.130745,-0.238752 -0.363813,-0.352443 -0.233067,-0.119376 -0.636671,-0.119376 -0.39792,0 -0.824263,0.216013 -0.420658,0.21033 -0.824263,0.551404 v 4.740932 h -1.068699 v -6.349666 h 1.068699 v 0.704887 q 0.477504,-0.426343 0.943639,-0.653725 0.466135,-0.227383 0.983431,-0.227383 0.937954,0 1.466619,0.619618 0.528665,0.613933 0.528665,1.784955 z"
         style="font-family:Tahoma"
         id="path43" />
      <path
         d="m 78.470462,19.226933 h -1.068699 v -8.845192 h 1.068699 z"
         style="font-family:Tahoma"
         id="path45" />
      <path
         d="m 85.263522,16.054942 q 0,1.603049 -0.773102,2.478473 -0.773101,0.869739 -2.057814,0.869739 -1.324505,0 -2.086237,-0.898162 -0.756048,-0.903847 -0.756048,-2.45005 0,-1.591679 0.778786,-2.472788 0.784471,-0.881108 2.063499,-0.881108 1.284713,0 2.057814,0.881108 0.773102,0.875424 0.773102,2.472788 z m -1.102807,0 q 0,-1.233552 -0.449081,-1.830431 -0.449081,-0.602565 -1.279028,-0.602565 -0.835632,0 -1.290398,0.602565 -0.449081,0.596879 -0.449081,1.830431 0,1.19376 0.449081,1.813378 0.454766,0.613934 1.290398,0.613934 0.824263,0 1.273344,-0.602565 0.454765,-0.608249 0.454765,-1.824747 z"
         style="font-family:Tahoma"
         id="path47" />
      <path
         d="m 89.907817,17.663676 v -1.762217 q -0.380866,0.03411 -0.966377,0.09664 -0.579826,0.05685 -0.937954,0.164852 -0.426343,0.130745 -0.704887,0.403605 -0.278544,0.267174 -0.278544,0.750363 0,0.545719 0.306967,0.824263 0.306967,0.278544 0.898162,0.278544 0.505927,0 0.915216,-0.216014 0.409289,-0.221698 0.767417,-0.540034 z m 0,0.886793 q -0.130745,0.09664 -0.352443,0.272859 -0.216014,0.170537 -0.420659,0.272859 -0.284228,0.147799 -0.551403,0.227383 -0.26149,0.07958 -0.738994,0.07958 -0.392235,0 -0.744679,-0.147799 -0.352443,-0.147798 -0.619618,-0.414973 -0.255806,-0.261491 -0.409289,-0.642357 -0.153483,-0.386551 -0.153483,-0.812893 0,-0.65941 0.278544,-1.119861 0.278543,-0.466134 0.881108,-0.738994 0.53435,-0.244436 1.261975,-0.335389 0.727625,-0.09664 1.568941,-0.142115 v -0.204644 q 0,-0.375182 -0.113691,-0.602565 -0.113692,-0.233067 -0.318336,-0.358128 -0.204645,-0.130745 -0.500243,-0.170537 -0.295597,-0.04548 -0.608249,-0.04548 -0.369497,0 -0.869739,0.113691 -0.500242,0.108007 -1.000484,0.318336 h -0.06253 v -1.085753 q 0.295598,-0.08527 0.847001,-0.187591 0.551404,-0.102322 1.091438,-0.102322 0.653726,0 1.102807,0.102322 0.449081,0.102323 0.807209,0.369497 0.346758,0.261491 0.517296,0.676464 0.170537,0.414974 0.170537,1.011854 v 4.343012 h -1.063015 z"
         style="font-family:Tahoma"
         id="path49" />
      <path
         d="m 97.360288,19.226933 h -1.068699 v -0.648042 q -0.250121,0.21033 -0.432028,0.346759 -0.181906,0.13643 -0.426342,0.250121 -0.227383,0.108007 -0.47182,0.164853 -0.244436,0.06253 -0.568457,0.06253 -0.517296,0 -0.960692,-0.216013 -0.437712,-0.216014 -0.744679,-0.630988 -0.312651,-0.420658 -0.483188,-1.034592 -0.170538,-0.619618 -0.170538,-1.421142 0,-0.835632 0.216014,-1.443881 0.216014,-0.613934 0.59688,-1.068699 0.346759,-0.414974 0.835632,-0.648041 0.494558,-0.238752 1.034592,-0.238752 0.477504,0 0.829947,0.108007 0.352443,0.102322 0.744679,0.32402 v -2.751332 h 1.068699 z m -1.068699,-1.546204 v -3.660863 q -0.39792,-0.193275 -0.716256,-0.267175 -0.312652,-0.0739 -0.682149,-0.0739 -0.824262,0 -1.290397,0.619618 -0.466135,0.613934 -0.466135,1.779271 0,1.11986 0.358128,1.71674 0.358128,0.591195 1.148283,0.591195 0.420658,0 0.847001,-0.187591 0.426343,-0.193275 0.801525,-0.517296 z"
         style="font-family:Tahoma"
         id="path51" />
    </g>
    <g
       aria-label="Flashpoint"
       id="text18"
       style="font-size:17.286px;line-height:1.25">
      <path
         d="m 55.531564,24.20824 h -5.849217 v 3.54498 h 5.604445 v 1.485516 h -5.604445 v 6.051788 h -1.671205 v -12.5678 h 7.520422 z"
         style="font-family:Tahoma"
         id="path54" />
      <path
         d="m 58.519476,35.290524 h -1.5868 V 22.157215 h 1.5868 z"
         style="font-family:Tahoma"
         id="path56" />
      <path
         d="m 66.115863,32.969405 v -2.616533 q -0.565509,0.05064 -1.434873,0.143488 -0.860924,0.0844 -1.392671,0.244772 -0.633032,0.19413 -1.046613,0.599271 -0.413581,0.3967 -0.413581,1.114136 0,0.810281 0.455783,1.223863 0.455783,0.413581 1.333588,0.413581 0.751198,0 1.358909,-0.320737 0.607711,-0.329176 1.139458,-0.801841 z m 0,1.316707 q -0.19413,0.143488 -0.523307,0.405141 -0.320736,0.253213 -0.624591,0.405141 -0.422022,0.219451 -0.818722,0.337617 -0.38826,0.118166 -1.097256,0.118166 -0.58239,0 -1.105696,-0.219451 -0.523307,-0.219451 -0.920007,-0.616152 -0.379819,-0.388259 -0.607711,-0.953768 -0.227892,-0.573949 -0.227892,-1.206982 0,-0.979089 0.413582,-1.662764 0.413581,-0.692115 1.308266,-1.097256 0.7934,-0.362938 1.873775,-0.497985 1.080375,-0.143488 2.329559,-0.211011 v -0.303855 q 0,-0.557069 -0.168809,-0.894686 -0.168808,-0.346058 -0.472664,-0.531747 -0.303855,-0.19413 -0.742758,-0.253213 -0.438902,-0.06752 -0.903125,-0.06752 -0.548628,0 -1.291386,0.168808 -0.742758,0.160368 -1.485516,0.472664 h -0.09284 v -1.612122 q 0.438902,-0.126606 1.257624,-0.278534 0.818721,-0.151928 1.620562,-0.151928 0.970649,0 1.637443,0.151928 0.666794,0.151928 1.198541,0.548628 0.514866,0.38826 0.768079,1.004411 0.253213,0.616151 0.253213,1.502397 v 6.448488 h -1.57836 z"
         style="font-family:Tahoma"
         id="path58" />
      <path
         d="m 72.471505,35.518415 q -0.945328,0 -1.77249,-0.253213 -0.818722,-0.253213 -1.358909,-0.540187 v -1.780931 h 0.0844 q 0.202571,0.160368 0.472664,0.354498 0.278534,0.19413 0.734318,0.405141 0.40514,0.185689 0.886245,0.329177 0.489545,0.143487 1.012851,0.143487 0.37982,0 0.810281,-0.0844 0.430462,-0.09284 0.641473,-0.227892 0.295415,-0.19413 0.422022,-0.413581 0.135046,-0.219451 0.135046,-0.658354 0,-0.565508 -0.312295,-0.852483 -0.303856,-0.286975 -1.088816,-0.481104 -0.303855,-0.07596 -0.7934,-0.177249 -0.489545,-0.101286 -0.903126,-0.219452 -1.080375,-0.312295 -1.56992,-0.962209 -0.489545,-0.658353 -0.489545,-1.5868 0,-1.274505 0.962209,-2.076346 0.962209,-0.801841 2.55745,-0.801841 0.78496,0 1.57836,0.19413 0.793401,0.19413 1.333588,0.489545 v 1.696526 h -0.0844 q -0.607711,-0.481104 -1.358909,-0.759638 -0.742758,-0.278534 -1.502397,-0.278534 -0.78496,0 -1.325147,0.329176 -0.540187,0.329177 -0.540187,0.995971 0,0.59083 0.320736,0.886245 0.320736,0.286975 1.029732,0.472664 0.354498,0.09285 0.78496,0.18569 0.438902,0.0844 0.920007,0.20257 1.046613,0.261653 1.56992,0.869364 0.531747,0.607711 0.531747,1.654324 0,0.607711 -0.244773,1.156339 -0.236332,0.540188 -0.700555,0.928447 -0.506426,0.422022 -1.147899,0.641473 -0.633032,0.219451 -1.595241,0.219451 z"
         style="font-family:Tahoma"
         id="path60" />
      <path
         d="m 85.047746,35.290524 h -1.5868 V 29.92241 q 0,-0.649913 -0.06752,-1.206981 -0.05908,-0.565509 -0.236332,-0.903126 -0.19413,-0.354498 -0.540187,-0.523306 -0.346058,-0.17725 -0.945328,-0.17725 -0.59083,0 -1.223863,0.320737 -0.624591,0.312296 -1.223862,0.818721 v 7.039319 H 77.637049 V 22.157215 h 1.586801 v 4.751962 q 0.708996,-0.633032 1.401111,-0.970649 0.692116,-0.337617 1.460195,-0.337617 1.39267,0 2.17763,0.920006 0.78496,0.911567 0.78496,2.650295 z"
         style="font-family:Tahoma"
         id="path62" />
      <path
         d="m 95.184701,30.327551 q 0,2.35488 -1.131017,3.755991 -1.122578,1.392671 -2.844425,1.392671 -0.700556,0 -1.240743,-0.160368 -0.540188,-0.160368 -1.105696,-0.497986 V 38.76798 H 87.276019 V 25.862564 h 1.586801 v 0.98753 q 0.59083,-0.531747 1.308266,-0.886245 0.725877,-0.362938 1.57836,-0.362938 1.620563,0 2.523689,1.282945 0.911566,1.282945 0.911566,3.443695 z M 93.547258,30.5048 q 0,-1.612122 -0.514866,-2.498367 -0.514867,-0.894686 -1.671205,-0.894686 -0.675235,0 -1.308267,0.303856 -0.624592,0.295415 -1.1901,0.768079 v 5.342792 q 0.624591,0.303855 1.063494,0.413581 0.447342,0.109725 1.021292,0.109725 1.232302,0 1.915977,-0.903126 0.683675,-0.903125 0.683675,-2.641854 z"
         style="font-family:Tahoma"
         id="path64" />
      <path
         d="m 104.58734,30.580764 q 0,2.380201 -1.1479,3.680027 -1.1479,1.291386 -3.05544,1.291386 -1.966615,0 -3.097633,-1.333588 -1.122577,-1.342028 -1.122577,-3.637825 0,-2.36332 1.156339,-3.671587 1.164779,-1.308266 3.063871,-1.308266 1.90754,0 3.05544,1.308266 1.1479,1.299826 1.1479,3.671587 z m -1.63744,0 q 0,-1.831573 -0.6668,-2.717818 -0.66679,-0.894686 -1.8991,-0.894686 -1.240738,0 -1.915972,0.894686 -0.666794,0.886245 -0.666794,2.717818 0,1.77249 0.666794,2.692497 0.675234,0.911566 1.915972,0.911566 1.22387,0 1.89066,-0.894685 0.67524,-0.903126 0.67524,-2.709378 z"
         style="font-family:Tahoma"
         id="path66" />
      <path
         d="m 107.8369,35.290524 h -1.5868 v -9.42796 h 1.5868 z m 0.10973,-11.00632 h -1.80625 V 22.63832 h 1.80625 z"
         style="font-family:Tahoma"
         id="path68" />
      <path
         d="m 117.57716,35.290524 h -1.5868 V 29.92241 q 0,-0.649913 -0.0675,-1.206981 -0.0591,-0.565509 -0.23633,-0.903126 -0.19413,-0.354498 -0.54019,-0.523306 -0.34606,-0.17725 -0.94533,-0.17725 -0.59083,0 -1.22386,0.320737 -0.62459,0.312296 -1.22386,0.818721 v 7.039319 h -1.58681 v -9.42796 h 1.58681 v 1.046613 q 0.70899,-0.633032 1.40111,-0.970649 0.69211,-0.337617 1.46019,-0.337617 1.39267,0 2.17763,0.920006 0.78496,0.911567 0.78496,2.650295 z"
         style="font-family:Tahoma"
         id="path70" />
      <path
         d="m 122.6583,35.476213 q -1.29983,0 -2.0257,-0.734317 -0.72588,-0.742758 -0.72588,-2.337999 v -5.224626 h -1.07194 v -1.316707 h 1.07194 v -2.709378 h 1.5868 v 2.709378 h 2.92039 v 1.316707 h -2.92039 v 4.481868 q 0,0.717436 0.0253,1.105696 0.0253,0.38826 0.19413,0.725877 0.14349,0.295415 0.46422,0.447343 0.32074,0.143487 0.86937,0.143487 0.38826,0 0.7512,-0.109725 0.36294,-0.118166 0.5233,-0.19413 h 0.0928 v 1.426432 q -0.44734,0.126607 -0.91157,0.19413 -0.45578,0.07596 -0.84404,0.07596 z"
         style="font-family:Tahoma"
         id="path72" />
    </g>
  </g>
  <g
     transform="matrix(.99998 0 0 .99998 -37.266 -63.676)"
     fill="#fff"
     id="g26">
    <path
       transform="scale(.26458)"
       d="m201.43 267.16v45.357h-21.785l44.643 44.643 44.643-44.643h-21.785v-45.357z"
       id="path22" />
    <rect
       transform="scale(1,-1)"
       x="47.531"
       y="-101.11"
       width="23.624"
       height="3.9688"
       id="rect24" />
  </g>
  <defs
     id="defs31">
    <clipPath
       id="clipPath929">
      <rect
         transform="rotate(-4.1634)"
         x="-132.87"
         y="198.36"
         width="260.97"
         height="85.629"
         fill="#dd0428"
         id="rect28" />
    </clipPath>
  </defs>
</svg>
