<?xml version="1.0" encoding="UTF-8" standalone="no"?>
<svg
   width="378"
   height="128"
   version="1.1"
   viewBox="0 0 100.01 33.867"
   id="svg35"
   xmlns="http://www.w3.org/2000/svg"
   xmlns:svg="http://www.w3.org/2000/svg">
  <defs
     id="defs39" />
  <g
     transform="translate(0 -263.13)"
     fill="#000000"
     font-family="Tahoma"
     letter-spacing="0px"
     stroke-width=".26458"
     word-spacing="0px"
     id="g33">
    <g
       aria-label="BlueMaxima's"
       id="text27"
       style="font-size:9.5486px;line-height:1.25">
      <path
         d="m 12.489354,271.83167 q 0,0.51625 -0.195337,0.91157 -0.195337,0.39533 -0.525549,0.65113 -0.390674,0.30695 -0.837159,0.43718 -0.446484,0.12557 -1.1534176,0.12557 H 7.7919662 v -6.92516 h 1.8370971 q 0.7394897,0 1.1069087,0.0512 0.372071,0.0465 0.711585,0.2279 0.37207,0.19998 0.544153,0.52555 0.172082,0.32091 0.172082,0.75809 0,0.48834 -0.260449,0.87436 -0.255798,0.38603 -0.711584,0.60462 v 0.0372 q 0.618566,0.16743 0.958081,0.61391 0.339514,0.44184 0.339514,1.10691 z m -1.283643,-3.10679 q 0,-0.25114 -0.08372,-0.43253 -0.08371,-0.18603 -0.269751,-0.293 -0.223242,-0.12558 -0.497644,-0.15348 -0.274401,-0.0279 -0.7580928,-0.0279 h -0.883667 v 2.02779 h 1.0464477 q 0.4325321,0 0.6371701,-0.0419 0.204639,-0.0465 0.42323,-0.18604 0.20929,-0.13487 0.297657,-0.35346 0.08837,-0.2186 0.08837,-0.53951 z m 0.325562,3.144 q 0,-0.39068 -0.111621,-0.64182 -0.111621,-0.2558 -0.451136,-0.43253 -0.218591,-0.11628 -0.47904,-0.14883 -0.255798,-0.0326 -0.7301881,-0.0326 H 8.7128402 v 2.55798 h 0.7487915 q 0.6046143,0 0.9534303,-0.0558 0.348816,-0.0558 0.613916,-0.23719 0.260449,-0.18139 0.381372,-0.40928 0.120923,-0.23254 0.120923,-0.59996 z"
         style="font-size:9.525px"
         id="path201" />
      <path
         d="m 14.284593,273.95712 h -0.874365 v -7.23676 h 0.874365 z"
         style="font-size:9.525px"
         id="path203" />
      <path
         d="m 19.6145,273.95712 h -0.874366 v -0.57671 q -0.404626,0.35347 -0.767395,0.53951 -0.362768,0.18138 -0.809252,0.18138 -0.339515,0 -0.641822,-0.11162 -0.297656,-0.11162 -0.520898,-0.35347 -0.223242,-0.24184 -0.348816,-0.60926 -0.120923,-0.36742 -0.120923,-0.89297 v -3.37189 h 0.874365 v 2.95796 q 0,0.41393 0.02791,0.68833 0.03256,0.26975 0.139526,0.47439 0.10697,0.19999 0.288354,0.29301 0.186036,0.093 0.530201,0.093 0.32091,0 0.683679,-0.18138 0.362768,-0.18139 0.665075,-0.44649 v -3.87883 H 19.6145 Z"
         style="font-size:9.525px"
         id="path205" />
      <path
         d="m 23.135214,274.07805 q -1.241784,0 -1.930114,-0.69764 -0.683679,-0.70228 -0.683679,-1.99057 0,-1.26969 0.665075,-2.01848 0.665076,-0.75345 1.739429,-0.75345 0.483691,0 0.855762,0.13953 0.37207,0.13953 0.651123,0.43718 0.279052,0.29766 0.427881,0.73019 0.148828,0.42788 0.148828,1.0511 v 0.47439 h -3.599781 q 0,0.90692 0.455787,1.38596 0.455786,0.47904 1.260388,0.47904 0.288354,0 0.562756,-0.0651 0.279053,-0.0651 0.502295,-0.16743 0.237195,-0.10697 0.399976,-0.20464 0.16278,-0.10232 0.269751,-0.19069 h 0.05116 v 0.95343 q -0.153479,0.0605 -0.381372,0.15348 -0.227893,0.0884 -0.409277,0.13953 -0.255799,0.0698 -0.465088,0.10697 -0.204639,0.0372 -0.520899,0.0372 z m 1.023194,-3.29748 q -0.0093,-0.35346 -0.08372,-0.60926 -0.07441,-0.2558 -0.21394,-0.43253 -0.153479,-0.19534 -0.395325,-0.29766 -0.237195,-0.10232 -0.590662,-0.10232 -0.348816,0 -0.595312,0.10697 -0.241846,0.10232 -0.441834,0.30231 -0.195337,0.20464 -0.297656,0.45578 -0.102319,0.2465 -0.130225,0.57671 z"
         style="font-size:9.525px"
         id="path207" />
      <path
         d="m 31.89747,273.95712 h -0.920874 v -5.96707 l -1.804541,4.06021 h -0.558106 l -1.790588,-4.06021 v 5.96707 h -0.860412 v -6.92516 h 1.255737 l 1.730127,3.85558 1.669665,-3.85558 h 1.278992 z"
         style="font-size:9.525px"
         id="path209" />
      <path
         d="m 36.13442,272.67813 v -1.44177 q -0.311609,0.0279 -0.790649,0.0791 -0.47439,0.0465 -0.767395,0.13488 -0.348816,0.10697 -0.576709,0.33021 -0.227893,0.21859 -0.227893,0.61392 0,0.44648 0.251147,0.67437 0.251148,0.2279 0.734839,0.2279 0.413928,0 0.748792,-0.17674 0.334863,-0.18138 0.627868,-0.44183 z m 0,0.72554 q -0.10697,0.0791 -0.288354,0.22324 -0.176734,0.13953 -0.344165,0.22324 -0.232544,0.12093 -0.451135,0.18604 -0.213941,0.0651 -0.604615,0.0651 -0.32091,0 -0.609265,-0.12092 -0.288354,-0.12093 -0.506946,-0.33952 -0.209289,-0.21394 -0.334863,-0.52555 -0.125574,-0.31626 -0.125574,-0.66507 0,-0.5395 0.227893,-0.91623 0.227894,-0.38137 0.720887,-0.60461 0.437182,-0.19999 1.032495,-0.2744 0.595312,-0.0791 1.283642,-0.11627 v -0.16743 q 0,-0.30696 -0.09302,-0.493 -0.09302,-0.19068 -0.26045,-0.293 -0.167431,-0.10697 -0.409277,-0.13953 -0.241846,-0.0372 -0.497644,-0.0372 -0.302307,0 -0.711584,0.093 -0.409278,0.0884 -0.818555,0.26045 h -0.05116 v -0.88832 q 0.241846,-0.0698 0.692981,-0.15348 0.451136,-0.0837 0.892969,-0.0837 0.534851,0 0.90227,0.0837 0.36742,0.0837 0.660425,0.30231 0.283704,0.21394 0.42323,0.55346 0.139527,0.33951 0.139527,0.82785 v 3.55327 H 36.13442 Z"
         style="font-size:9.525px"
         id="path211" />
      <path
         d="m 42.268929,273.95712 h -1.074352 l -1.260389,-1.96267 -1.297595,1.96267 h -0.990637 l 1.804541,-2.57658 -1.785937,-2.61845 h 1.074353 l 1.251086,1.94407 1.283642,-1.94407 h 0.995288 l -1.795239,2.55798 z"
         style="font-size:9.525px"
         id="path213" />
      <path
         d="M 43.840926,273.95712 H 42.96656 v -5.19503 h 0.874366 z m 0.06046,-6.06474 h -0.995288 v -0.90692 h 0.995288 z"
         style="font-size:9.525px"
         id="path215" />
      <path
         d="m 51.021884,273.95712 v -3.00446 q 0,-0.35812 -0.0279,-0.66043 -0.02791,-0.30696 -0.116272,-0.47904 -0.09302,-0.18604 -0.2651,-0.2744 -0.172083,-0.0884 -0.465088,-0.0884 -0.269751,0 -0.58136,0.16743 -0.306958,0.16278 -0.637171,0.47439 0.0047,0.0791 0.0093,0.19069 0.0093,0.10697 0.0093,0.2558 v 3.41839 h -0.874365 v -3.00446 q 0,-0.35812 -0.02791,-0.66043 -0.02791,-0.30696 -0.116272,-0.47904 -0.09302,-0.18604 -0.265101,-0.2744 -0.172082,-0.0884 -0.465087,-0.0884 -0.283704,0 -0.595313,0.17673 -0.311609,0.17674 -0.604614,0.45114 v 3.87883 H 45.12457 v -5.19503 h 0.874365 v 0.57671 q 0.344165,-0.34416 0.679028,-0.5302 0.339514,-0.19069 0.744141,-0.19069 0.460437,0 0.813904,0.20929 0.358117,0.20929 0.544152,0.68833 0.395325,-0.44183 0.772046,-0.66972 0.376721,-0.2279 0.818555,-0.2279 0.334863,0 0.609265,0.10697 0.274402,0.10232 0.47904,0.33487 0.20929,0.23719 0.320911,0.59066 0.116272,0.35347 0.116272,0.88832 v 3.41839 z"
         style="font-size:9.525px"
         id="path217" />
      <path
         d="m 56.02623,272.67813 v -1.44177 q -0.311609,0.0279 -0.79065,0.0791 -0.474389,0.0465 -0.767395,0.13488 -0.348816,0.10697 -0.576709,0.33021 -0.227893,0.21859 -0.227893,0.61392 0,0.44648 0.251148,0.67437 0.251147,0.2279 0.734839,0.2279 0.413928,0 0.748791,-0.17674 0.334863,-0.18138 0.627869,-0.44183 z m 0,0.72554 q -0.10697,0.0791 -0.288355,0.22324 -0.176733,0.13953 -0.344165,0.22324 -0.232544,0.12093 -0.451135,0.18604 -0.21394,0.0651 -0.604614,0.0651 -0.320911,0 -0.609265,-0.12092 -0.288355,-0.12093 -0.506946,-0.33952 -0.20929,-0.21394 -0.334863,-0.52555 -0.125574,-0.31626 -0.125574,-0.66507 0,-0.5395 0.227893,-0.91623 0.227893,-0.38137 0.720886,-0.60461 0.437183,-0.19999 1.032495,-0.2744 0.595313,-0.0791 1.283643,-0.11627 v -0.16743 q 0,-0.30696 -0.09302,-0.493 -0.09302,-0.19068 -0.260449,-0.293 -0.167432,-0.10697 -0.409277,-0.13953 -0.241846,-0.0372 -0.497644,-0.0372 -0.302308,0 -0.711585,0.093 -0.409277,0.0884 -0.818555,0.26045 h -0.05116 v -0.88832 q 0.241846,-0.0698 0.692981,-0.15348 0.451135,-0.0837 0.892968,-0.0837 0.534852,0 0.902271,0.0837 0.367419,0.0837 0.660425,0.30231 0.283703,0.21394 0.42323,0.55346 0.139526,0.33951 0.139526,0.82785 v 3.55327 H 56.02623 Z"
         style="font-size:9.525px"
         id="path219" />
      <path
         d="m 59.012094,266.72036 -0.199988,2.69285 h -0.632519 l -0.199988,-2.69285 z"
         style="font-size:9.525px"
         id="path221" />
      <path
         d="m 61.53752,274.0827 q -0.520899,0 -0.976685,-0.13953 -0.451135,-0.13953 -0.748791,-0.29766 v -0.98133 h 0.04651 q 0.111621,0.0884 0.260449,0.19534 0.153479,0.10697 0.404626,0.22324 0.223242,0.10232 0.488342,0.18138 0.269751,0.0791 0.558106,0.0791 0.209289,0 0.446484,-0.0465 0.237195,-0.0512 0.353467,-0.12558 0.162781,-0.10697 0.232544,-0.22789 0.07441,-0.12092 0.07441,-0.36277 0,-0.31161 -0.172082,-0.46974 -0.167432,-0.15813 -0.599964,-0.2651 -0.167431,-0.0419 -0.437182,-0.0977 -0.269751,-0.0558 -0.497644,-0.12093 -0.595313,-0.17208 -0.865064,-0.5302 -0.269751,-0.36277 -0.269751,-0.87436 0,-0.70229 0.5302,-1.14412 0.5302,-0.44183 1.409217,-0.44183 0.432531,0 0.869714,0.10697 0.437182,0.10697 0.734839,0.26975 v 0.93483 h -0.04651 q -0.334863,-0.2651 -0.748792,-0.41858 -0.409277,-0.15348 -0.827856,-0.15348 -0.432532,0 -0.730188,0.18138 -0.297656,0.18139 -0.297656,0.54881 0,0.32556 0.176733,0.48834 0.176734,0.15813 0.567407,0.26045 0.195337,0.0512 0.432532,0.10232 0.241846,0.0465 0.506946,0.11162 0.576709,0.14417 0.865063,0.47904 0.293006,0.33486 0.293006,0.91157 0,0.33486 -0.134876,0.63717 -0.130224,0.29766 -0.386023,0.5116 -0.279052,0.23254 -0.632519,0.35346 -0.348816,0.12093 -0.879016,0.12093 z"
         style="font-size:9.525px"
         id="path223" />
    </g>
    <g
       aria-label="Flashpoint"
       id="text31"
       style="font-size:19.104px;line-height:1.25">
      <path
         d="M 14.72977,277.33787 H 8.2718089 v 3.91392 h 6.1877141 v 1.64011 H 8.2718089 v 6.68162 H 6.4266772 V 275.69775 H 14.72977 Z"
         style="font-size:19.085px;letter-spacing:0.30427px"
         id="path226" />
      <path
         d="m 18.332912,289.57352 h -1.751943 v -14.50013 h 1.751943 z"
         style="font-size:19.085px;letter-spacing:0.30427px"
         id="path228" />
      <path
         d="m 27.024144,287.01083 v -2.88884 q -0.624363,0.0559 -1.584204,0.15842 -0.950522,0.0932 -1.53761,0.27025 -0.698913,0.21433 -1.155537,0.66164 -0.456623,0.43798 -0.456623,1.23008 0,0.89461 0.503217,1.35124 0.503218,0.45662 1.472378,0.45662 0.829378,0 1.500335,-0.35412 0.670957,-0.36343 1.258044,-0.88529 z m 0,1.45374 q -0.214333,0.15842 -0.577769,0.44731 -0.354116,0.27956 -0.689594,0.4473 -0.465943,0.24229 -0.903928,0.37276 -0.428667,0.13046 -1.211451,0.13046 -0.643,0 -1.220768,-0.24229 -0.577769,-0.24229 -1.015755,-0.68027 -0.419348,-0.42867 -0.670957,-1.05303 -0.251609,-0.63369 -0.251609,-1.3326 0,-1.08099 0.456624,-1.83581 0.456623,-0.76415 1.444421,-1.21145 0.875972,-0.40071 2.068784,-0.54981 1.192813,-0.15843 2.572002,-0.23298 v -0.33547 q 0,-0.61505 -0.186377,-0.9878 -0.186377,-0.38207 -0.521855,-0.58709 -0.335479,-0.21433 -0.820059,-0.27956 -0.48458,-0.0746 -0.997117,-0.0746 -0.605725,0 -1.425783,0.18638 -0.820059,0.17706 -1.640117,0.52186 h -0.102508 v -1.7799 q 0.48458,-0.13979 1.388509,-0.30753 0.903928,-0.16773 1.789218,-0.16773 1.071668,0 1.807857,0.16773 0.736189,0.16774 1.323276,0.60573 0.56845,0.42867 0.848015,1.10894 0.279565,0.68028 0.279565,1.65876 v 7.1196 h -1.742624 z"
         style="font-size:19.085px;letter-spacing:0.30427px"
         id="path230" />
      <path
         d="m 34.345506,289.82513 q -1.043711,0 -1.956958,-0.27957 -0.903928,-0.27957 -1.500334,-0.59641 v -1.96627 h 0.09319 q 0.223653,0.17706 0.521856,0.39139 0.307522,0.21433 0.81074,0.4473 0.447304,0.20502 0.978479,0.36344 0.540493,0.15842 1.118261,0.15842 0.419348,0 0.89461,-0.0932 0.475261,-0.10251 0.708232,-0.25161 0.32616,-0.21433 0.465942,-0.45662 0.149102,-0.24229 0.149102,-0.72687 0,-0.62436 -0.344798,-0.94121 -0.335478,-0.31684 -1.202131,-0.53117 -0.335478,-0.0839 -0.875971,-0.1957 -0.540494,-0.11182 -0.997117,-0.24229 -1.192813,-0.34479 -1.733306,-1.06234 -0.540493,-0.72687 -0.540493,-1.75195 0,-1.40714 1.062349,-2.29243 1.062348,-0.88529 2.82361,-0.88529 0.866653,0 1.742625,0.21433 0.875972,0.21433 1.472378,0.54049 v 1.87309 h -0.09319 q -0.670957,-0.53117 -1.500334,-0.8387 -0.820059,-0.30752 -1.658755,-0.30752 -0.866653,0 -1.463059,0.36344 -0.596406,0.36343 -0.596406,1.09962 0,0.65232 0.354116,0.97848 0.354116,0.31684 1.136899,0.52186 0.391392,0.1025 0.866653,0.20501 0.48458,0.0932 1.015755,0.22365 1.155537,0.28889 1.733305,0.95984 0.587087,0.67096 0.587087,1.8265 0,0.67096 -0.270246,1.27668 -0.260928,0.59641 -0.773464,1.02507 -0.559131,0.46595 -1.267364,0.70824 -0.698913,0.24229 -1.761262,0.24229 z"
         style="font-size:19.085px;letter-spacing:0.30427px"
         id="path232" />
      <path
         d="m 48.534859,289.57352 h -1.751943 v -5.92679 q 0,-0.71755 -0.07455,-1.3326 -0.06523,-0.62436 -0.260927,-0.99711 -0.214334,-0.39139 -0.596407,-0.57777 -0.382072,-0.1957 -1.04371,-0.1957 -0.65232,0 -1.351233,0.35412 -0.689595,0.3448 -1.351233,0.90393 v 7.77192 h -1.751943 v -14.50013 h 1.751943 v 5.24651 q 0.782783,-0.69891 1.546929,-1.07167 0.764145,-0.37275 1.61216,-0.37275 1.53761,0 2.404263,1.01575 0.866652,1.00644 0.866652,2.92612 z"
         style="font-size:19.085px;letter-spacing:0.30427px"
         id="path234" />
      <path
         d="m 60.031064,284.09403 q 0,2.59996 -1.248726,4.14689 -1.239407,1.53761 -3.140452,1.53761 -0.773464,0 -1.36987,-0.17706 -0.596406,-0.17705 -1.220769,-0.54981 v 4.36122 h -1.751943 v -14.24852 h 1.751943 v 1.09031 q 0.652319,-0.58709 1.444421,-0.97848 0.801421,-0.40071 1.742625,-0.40071 1.789218,0 2.786335,1.41647 1.006436,1.41646 1.006436,3.80208 z m -1.807857,0.1957 q 0,-1.7799 -0.56845,-2.75838 -0.568449,-0.9878 -1.845131,-0.9878 -0.745508,0 -1.444422,0.33548 -0.689594,0.32616 -1.313957,0.84802 v 5.89883 q 0.689595,0.33548 1.174175,0.45662 0.493899,0.12115 1.12758,0.12115 1.360552,0 2.115379,-0.99712 0.754826,-0.99712 0.754826,-2.9168 z"
         style="font-size:19.085px;letter-spacing:0.30427px"
         id="path236" />
      <path
         d="m 70.716531,284.3736 q 0,2.62792 -1.267363,4.06302 -1.267364,1.42578 -3.373423,1.42578 -2.171291,0 -3.420017,-1.47238 -1.239407,-1.48169 -1.239407,-4.01642 0,-2.60928 1.276682,-4.0537 1.286001,-1.44442 3.382742,-1.44442 2.106059,0 3.373423,1.44442 1.267363,1.4351 1.267363,4.0537 z m -1.807856,0 q 0,-2.02219 -0.736189,-3.00067 -0.736189,-0.9878 -2.096741,-0.9878 -1.369871,0 -2.115378,0.9878 -0.736189,0.97848 -0.736189,3.00067 0,1.95696 0.736189,2.97271 0.745507,1.00644 2.115378,1.00644 1.351233,0 2.087422,-0.9878 0.745508,-0.99712 0.745508,-2.99135 z"
         style="font-size:19.085px;letter-spacing:0.30427px"
         id="path238" />
      <path
         d="M 74.608553,289.57352 H 72.85661 v -10.40916 h 1.751943 z m 0.121145,-12.15178 h -1.994233 v -1.81718 h 1.994233 z"
         style="font-size:19.085px;letter-spacing:0.30427px"
         id="path240" />
      <path
         d="m 85.666772,289.57352 h -1.751944 v -5.92679 q 0,-0.71755 -0.07455,-1.3326 -0.06523,-0.62436 -0.260928,-0.99711 -0.214334,-0.39139 -0.596406,-0.57777 -0.382073,-0.1957 -1.043711,-0.1957 -0.652319,0 -1.351233,0.35412 -0.689595,0.3448 -1.351233,0.90393 v 7.77192 h -1.751943 v -10.40916 h 1.751943 v 1.15554 q 0.782783,-0.69891 1.546929,-1.07167 0.764145,-0.37275 1.61216,-0.37275 1.53761,0 2.404263,1.01575 0.866653,1.00644 0.866653,2.92612 z"
         style="font-size:19.085px;letter-spacing:0.30427px"
         id="path242" />
      <path
         d="m 91.58099,289.77853 q -1.435102,0 -2.236523,-0.81074 -0.801421,-0.82006 -0.801421,-2.58132 v -5.76837 h -1.183494 v -1.45374 h 1.183494 v -2.99135 h 1.751943 v 2.99135 h 3.224321 v 1.45374 h -3.224321 v 4.94831 q 0,0.7921 0.02796,1.22077 0.02796,0.42867 0.214333,0.80142 0.158421,0.32616 0.512537,0.4939 0.354116,0.15842 0.959841,0.15842 0.428667,0 0.829377,-0.12114 0.400711,-0.13047 0.577769,-0.21434 h 0.102507 v 1.57489 q -0.493899,0.13978 -1.006435,0.21433 -0.503218,0.0839 -0.931885,0.0839 z"
         style="font-size:19.085px;letter-spacing:0.30427px"
         id="path244" />
    </g>
  </g>
</svg>
