<?xml version="1.0" encoding="UTF-8" standalone="no"?>
<svg
   xmlns:dc="http://purl.org/dc/elements/1.1/"
   xmlns:cc="http://creativecommons.org/ns#"
   xmlns:rdf="http://www.w3.org/1999/02/22-rdf-syntax-ns#"
   xmlns:svg="http://www.w3.org/2000/svg"
   xmlns="http://www.w3.org/2000/svg"
   xmlns:xlink="http://www.w3.org/1999/xlink"
   xmlns:sodipodi="http://sodipodi.sourceforge.net/DTD/sodipodi-0.dtd"
   xmlns:inkscape="http://www.inkscape.org/namespaces/inkscape"
   width="70"
   height="70"
   version="1.1"
   viewBox="0 0 18.520963 18.520963"
   id="svg958"
   sodipodi:docname="fplogo_cutout.svg"
   inkscape:version="1.0.1 (3bc2e813f5, 2020-09-07)">
  <metadata
     id="metadata962">
    <rdf:RDF>
      <cc:Work
         rdf:about="">
        <dc:format>image/svg+xml</dc:format>
        <dc:type
           rdf:resource="http://purl.org/dc/dcmitype/StillImage" />
        <dc:title></dc:title>
      </cc:Work>
    </rdf:RDF>
  </metadata>
  <sodipodi:namedview
     pagecolor="#ffffff"
     bordercolor="#666666"
     borderopacity="1"
     objecttolerance="10"
     gridtolerance="10"
     guidetolerance="10"
     inkscape:pageopacity="0"
     inkscape:pageshadow="2"
     inkscape:window-width="1920"
     inkscape:window-height="1017"
     id="namedview960"
     showgrid="false"
     inkscape:zoom="4"
     inkscape:cx="52.187627"
     inkscape:cy="-0.51786569"
     inkscape:window-x="-8"
     inkscape:window-y="-8"
     inkscape:window-maximized="1"
     inkscape:current-layer="svg958"
     fit-margin-top="0"
     fit-margin-left="0"
     fit-margin-right="0"
     fit-margin-bottom="0" />
  <defs
     id="defs934">
    <linearGradient
       id="linearGradient5455"
       x1="-9.0872002"
       x2="53.182999"
       y1="188.36"
       y2="250.89999"
       gradientUnits="userSpaceOnUse">
      <stop
         stop-color="#e81c24"
         offset="0"
         id="stop923" />
      <stop
         stop-color="#7c1315"
         offset="1"
         id="stop925" />
    </linearGradient>
    <linearGradient
       id="linearGradient5512"
       x1="-464.95999"
       x2="-248.84"
       y1="308.81"
       y2="308.81"
       gradientUnits="userSpaceOnUse">
      <stop
         stop-color="#e5e5e5"
         offset="0"
         id="stop928" />
      <stop
         stop-color="#fefefe"
         offset="1"
         id="stop930" />
    </linearGradient>
    <linearGradient
       id="linearGradient11787"
       x1="-464.95999"
       x2="-248.84"
       y1="308.81"
       y2="308.81"
       gradientUnits="userSpaceOnUse"
       xlink:href="#linearGradient5512" />
    <clipPath
       clipPathUnits="userSpaceOnUse"
       id="clipPath1551">
      <rect
         style="opacity:0.5;fill:#00ffff;fill-rule:evenodd;stroke-width:0.914389;stroke-linecap:square"
         id="rect1553"
         width="41.157696"
         height="41.157696"
         x="3.9450991"
         y="198.79524"
         rx="2.2085539e-15" />
    </clipPath>
    <linearGradient
       inkscape:collect="always"
       xlink:href="#linearGradient5512"
       id="linearGradient1555"
       gradientUnits="userSpaceOnUse"
       x1="-464.95999"
       y1="308.81"
       x2="-248.84"
       y2="308.81" />
    <linearGradient
       inkscape:collect="always"
       xlink:href="#linearGradient5512"
       id="linearGradient1557"
       gradientUnits="userSpaceOnUse"
       x1="-464.95999"
       y1="308.81"
       x2="-248.84"
       y2="308.81" />
  </defs>
  <g
     transform="matrix(0.45,0,0,0.45,-1.7752946,-89.457859)"
     stroke-width="1.2"
     id="g956"
     clip-path="url(#clipPath1551)">
    <rect
       x="-17.105"
       y="179.67"
       width="79.375"
       height="79.375"
       fill="url(#linearGradient5455)"
       id="rect936"
       style="fill:url(#linearGradient5455)" />
    <g
       transform="matrix(0.30971,0,0,0.30971,135.2,124.53)"
       fill="#f00"
       id="g942">
      <path
         d="m -403.24,365.59 134.87,-41.564 -180.39,-104.72 140.29,103.62 -85.28,24.963 z"
         id="path938" />
      <path
         d="m -458.86,226.31 63.57,79.08 -45.883,92.936 30.169,-9.2976 c 12.024,-27.645 24.048,-55.29 36.072,-82.934 l 1.5684,21.762 37.364,-9.6537 z"
         id="path940" />
    </g>
    <g
       transform="matrix(0.30971,0,0,0.30971,135.2,122.91)"
       fill="#800000"
       id="g948">
      <path
         d="m -403.24,365.59 134.87,-41.564 -180.39,-104.72 140.29,103.62 -85.28,24.963 z"
         id="path944" />
      <path
         d="m -458.86,226.31 63.57,79.08 -45.883,92.936 30.169,-9.2976 c 12.024,-27.645 24.048,-55.29 36.072,-82.934 l 1.5684,21.762 37.364,-9.6537 z"
         id="path946" />
    </g>
    <g
       transform="matrix(0.30971,0,0,0.30971,135.2,123.72)"
       fill="url(#linearGradient11787)"
       stroke-width="3.8746"
       id="g954"
       style="fill:url(#linearGradient11787)">
      <path
         d="m -403.24,365.59 134.87,-41.564 -180.39,-104.72 140.29,103.62 -85.28,24.963 z"
         stroke-width="3.8746"
         id="path950"
         style="fill:url(#linearGradient1555)" />
      <path
         d="m -458.86,226.31 63.57,79.08 -45.883,92.936 30.169,-9.2976 c 12.024,-27.645 24.048,-55.29 36.072,-82.934 l 1.5684,21.762 37.364,-9.6537 z"
         id="path952"
         style="fill:url(#linearGradient1557)" />
    </g>
  </g>
</svg>
